<?xml version="1.0" encoding="utf-8"?>
<!-- Generator: Adobe Illustrator 27.5.0, SVG Export Plug-In . SVG Version: 6.00 Build 0)  -->
<svg version="1.1" xmlns="http://www.w3.org/2000/svg" xmlns:xlink="http://www.w3.org/1999/xlink" x="0px" y="0px"
	 viewBox="0 0 500 500" style="enable-background:new 0 0 500 500;" xml:space="preserve">
<g id="BACKGROUND">
	<rect style="fill:#B9CFE6;" width="500" height="500"/>
	<path style="fill:#8EADD5;" d="M37.624,427.051c0,0,26.164-95.964,57.493-95.964c31.328,0,27.818,39.19,69.79,39.19
		s51.551-116.162,97.091-116.162c45.539,0,25.11,94.144,58.717,94.144c33.607,0,44.476-27.004,72.712-27.004
		c28.236,0,67.932,105.774,67.932,105.774L37.624,427.051z"/>
	<circle style="fill:#CBDEEE;" cx="361.941" cy="148.222" r="73.509"/>
</g>
<g id="OBJECTS">
	<g>
		<path style="fill:#2E344B;" d="M436.728,400.72h-169.72c-2.767,0-5.01-2.243-5.01-5.01V290.955c0-2.767,2.243-5.01,5.01-5.01
			h169.721c2.767,0,5.01,2.243,5.01,5.01v104.756C441.737,398.477,439.494,400.72,436.728,400.72z"/>
		<path style="fill:#B9CFE6;" d="M433.807,395.375H269.928c-1.59,0-2.879-1.289-2.879-2.879v-98.328c0-1.59,1.289-2.879,2.879-2.879
			h163.879c1.59,0,2.879,1.289,2.879,2.879v98.328C436.686,394.087,435.397,395.375,433.807,395.375z"/>
		<rect x="302.06" y="308.239" style="fill:#FFFFFF;" width="99.615" height="70.187"/>
		<rect x="302.06" y="308.239" style="fill:#EBAB6F;" width="99.615" height="5.853"/>
		<path style="fill:#2E344B;" d="M397.387,313.1h1.295c0.589,0,1.066-0.477,1.066-1.066v-1.295c0-0.589-0.477-1.066-1.066-1.066
			h-1.295c-0.589,0-1.066,0.477-1.066,1.066v1.295C396.321,312.623,396.799,313.1,397.387,313.1z"/>
		<path style="fill:#2E344B;" d="M392.78,313.1h1.295c0.589,0,1.066-0.477,1.066-1.066v-1.295c0-0.589-0.477-1.066-1.066-1.066
			h-1.295c-0.589,0-1.066,0.477-1.066,1.066v1.295C391.714,312.623,392.191,313.1,392.78,313.1z"/>
		<path style="fill:#2E344B;" d="M388.172,313.1h1.295c0.589,0,1.066-0.477,1.066-1.066v-1.295c0-0.589-0.477-1.066-1.066-1.066
			h-1.295c-0.589,0-1.066,0.477-1.066,1.066v1.295C387.106,312.623,387.583,313.1,388.172,313.1z"/>
		<rect x="330.457" y="400.72" style="fill:#6779B7;" width="42.822" height="19.574"/>
		<path style="fill:#2E344B;" d="M400.758,427.051h-97.78c-1.823,0-3.301-1.478-3.301-3.301v-0.154c0-1.823,1.478-3.301,3.301-3.301
			h97.78c1.823,0,3.301,1.478,3.301,3.301v0.154C404.059,425.573,402.581,427.051,400.758,427.051z"/>
	</g>
	<g>
		<path style="fill:#FFFFFF;" d="M251.3,208.882l1.488,0.483c0.679,0.22,0.679,1.182,0,1.402l-1.488,0.482
			c-1.858,0.602-3.315,2.059-3.917,3.917l-0.482,1.488c-0.22,0.679-1.182,0.679-1.402,0l-0.482-1.488
			c-0.602-1.858-2.059-3.315-3.917-3.917l-1.488-0.482c-0.679-0.22-0.679-1.182,0-1.402l1.488-0.483
			c1.858-0.602,3.315-2.059,3.917-3.917l0.482-1.488c0.22-0.679,1.182-0.679,1.402,0l0.482,1.488
			C247.985,206.822,249.442,208.279,251.3,208.882z"/>
		<path style="fill:#FFFFFF;" d="M261.315,221.476l1.101,0.357c0.503,0.163,0.503,0.874,0,1.037l-1.101,0.357
			c-1.375,0.446-2.453,1.524-2.899,2.899l-0.357,1.101c-0.163,0.503-0.874,0.503-1.037,0l-0.357-1.101
			c-0.446-1.375-1.524-2.453-2.899-2.899l-1.101-0.357c-0.503-0.163-0.503-0.874,0-1.037l1.101-0.357
			c1.375-0.446,2.453-1.524,2.899-2.899l0.357-1.101c0.163-0.503,0.874-0.503,1.037,0l0.357,1.101
			C258.862,219.952,259.94,221.03,261.315,221.476z"/>
		<path style="fill:#FFFFFF;" d="M115.5,149.666l1.101,0.357c0.503,0.163,0.503,0.874,0,1.037l-1.101,0.357
			c-1.375,0.446-2.453,1.524-2.899,2.899l-0.357,1.101c-0.163,0.503-0.874,0.503-1.037,0l-0.357-1.101
			c-0.446-1.375-1.524-2.453-2.899-2.899l-1.101-0.357c-0.503-0.163-0.503-0.874,0-1.037l1.101-0.357
			c1.375-0.446,2.453-1.524,2.899-2.899l0.357-1.101c0.163-0.503,0.874-0.503,1.037,0l0.357,1.101
			C113.047,148.142,114.125,149.22,115.5,149.666z"/>
		<path style="fill:#FFFFFF;" d="M97.018,356.947l1.101,0.357c0.503,0.163,0.503,0.874,0,1.037l-1.101,0.357
			c-1.375,0.446-2.453,1.524-2.899,2.899l-0.357,1.101c-0.163,0.503-0.874,0.503-1.037,0l-0.357-1.101
			c-0.446-1.375-1.524-2.453-2.899-2.899l-1.101-0.357c-0.503-0.163-0.503-0.874,0-1.037l1.101-0.357
			c1.375-0.446,2.453-1.524,2.899-2.899l0.357-1.101c0.163-0.503,0.874-0.503,1.037,0l0.357,1.101
			C94.565,355.423,95.643,356.501,97.018,356.947z"/>
		<path style="fill:#FFFFFF;" d="M450.974,277.555l1.101,0.357c0.503,0.163,0.503,0.874,0,1.037l-1.101,0.357
			c-1.375,0.446-2.453,1.524-2.899,2.899l-0.357,1.101c-0.163,0.503-0.874,0.503-1.037,0l-0.357-1.101
			c-0.446-1.375-1.524-2.453-2.899-2.899l-1.101-0.357c-0.503-0.163-0.503-0.874,0-1.037l1.101-0.357
			c1.375-0.446,2.453-1.524,2.899-2.899l0.357-1.101c0.163-0.503,0.874-0.503,1.037,0l0.357,1.101
			C448.521,276.031,449.599,277.109,450.974,277.555z"/>
	</g>
	<g>
		<path style="fill:#2E344B;" d="M95.371,181.753c10.715,4.167,20.687,24.556,19.496,31.104l-16.966-5.655l-6.846-13.99
			L95.371,181.753z"/>
		<path style="fill:#D8877B;" d="M94.627,187.286c4.703-2.767,14.94-8.023,20.196-12.173c5.257-4.15,25.729-13.003,25.729-13.003
			l8.023,42.606c0,0-6.916,1.66-13.833,1.107c-6.917-0.553-9.96-1.937-13.003-1.107c-3.043,0.83-13.003,9.406-13.003,9.406
			L94.627,187.286z"/>
		<path style="fill:#B44E50;" d="M108.737,214.122c0,0,4.939-4.252,8.924-7.058c-7.531-5.113-18.083-18.551-20.25-21.362
			c-1.047,0.585-1.997,1.122-2.784,1.584L108.737,214.122z"/>
		<path style="fill:#2E344B;" d="M309.529,281.614c4.688-0.893,14.957,5.581,18.529,8.706c3.572,3.125,8.111,15.403,8.111,15.403
			l-23.961-10.269L309.529,281.614z"/>
		<path style="fill:#D8877B;" d="M304.849,290.487c0,0,14.042-14.125,18.406-20.221c4.363-6.095,7.921-25.557,12.584-32.703
			c4.663-7.146,13.069-13.518,16.07-16.07c3.001-2.551,5.115,0.777,4.78,2.255c-0.335,1.478-8.207,13.738-8.207,13.738
			s4.28-0.185,5.36,5.062c0,0,4.714,0.136,3.907,4.8c0,0,5.28,2.774,2.679,5.692c-4.576,5.135-4.614,8.409-8.036,13.506
			c-3.422,5.097-7.813,11.162-7.813,11.162s-13.492,30.366-14.058,32.04L304.849,290.487z"/>
		<path style="fill:#B44E50;" d="M335.21,298.888l-23.304-15.687c-0.013,0.014-0.026,0.027-0.039,0.041
			c-0.179,0.188-0.356,0.374-0.531,0.559c-0.014,0.015-0.029,0.031-0.044,0.046l-2.622,9.506l12.378,9.287l4.388,3.292l5.774,2.137
			C332.041,306.117,333.522,302.727,335.21,298.888z"/>
		<path style="fill:#2E344B;" d="M169.742,133.129c-53.889,8.902-46.652,57.231-43.96,73.52
			c2.692,16.289-17.046,30.376-6.729,43.583c10.317,13.207,34.54,25.974,62.8,21.572c28.26-4.402,50.092-11.71,56.969-23.332
			c8.074-13.647-6.729-31.257-8.074-55.47C229.402,168.789,215.048,125.645,169.742,133.129z"/>
		<path style="fill:#6779B7;" d="M143.144,256.909c-16.371,1.488-21.579,2.381-28.723-0.595
			c-7.144-2.977-19.794-13.841-22.77-19.794c-2.976-5.953,22.026-22.175,23.216-23.663c-5.358-4.762-15.626-13.245-19.496-31.104
			c-4.465-0.298-41.373,20.538-52.386,39.587c-11.013,19.049,16.817,53.725,29.021,62.357c12.204,8.632,48.665,33.188,48.665,33.188
			s4.018,87.36-2.828,113.255h122.929c0,0-12.723-37.086-6.548-50.302c14.352-30.718,6.846-44.647,7.144-50.005
			c0,0,25.002,29.765,44.35,27.681c19.347-2.084,50.451-51.791,50.451-51.791l-26.639-24.109c0,0-20.24,22.324-25.3,27.681
			s-29.765-33.485-34.825-38.545c-5.06-5.06-22.026-12.65-32.281-12.711C205.501,257.058,143.144,256.909,143.144,256.909z"/>
		<path style="fill:#D8877B;" d="M160.407,228.335c0,0,1.178,14.728-2.976,22.621c-2.977,5.655-14.287,5.953-14.287,5.953
			s12.203,28.277,38.099,27.979c25.895-0.298,35.881-26.849,35.881-26.849s-5.624,0.287-11.279-3.88
			c-5.655-4.167-4.361-20.169-4.361-20.169L160.407,228.335z"/>
		<path style="fill:#B44E50;" d="M194.758,233.064l-34.35-4.729c0,0,1.133,14.216-2.768,22.199
			c31.64,10.542,45.034-7.019,45.034-7.019L194.758,233.064z"/>
		<path style="fill:#D8877B;" d="M143.144,205.716c0,0-10.12,1.786-6.846,10.715c3.274,8.929,13.097,6.251,13.097,6.251
			s14.386,34.126,50.898,24.11c33.634-9.227,19.645-55.66,16.073-68.459c0,0-41.373,5.655-55.065-8.334
			C161.3,169.998,159.514,196.191,143.144,205.716z"/>
		<path style="fill:#B44E50;" d="M348.657,238.705c-0.792-0.977-2.322-1.157-3.49-1.024c-1.383,0.158-2.682,0.743-3.908,1.375
			c-1.285,0.663-2.566,1.36-3.789,2.133c-2.255,1.426-4.379,3.167-5.852,5.42c-0.785,1.201-1.316,2.511-1.589,3.918
			c-0.301,1.552-0.344,3.257-0.991,4.716c-0.108,0.245,0.231,0.46,0.368,0.215c0.572-1.026,0.939-2.106,1.171-3.255
			c0.24-1.188,0.471-2.387,0.949-3.507c0.942-2.204,2.634-3.996,4.543-5.404c2.003-1.478,4.256-2.775,6.51-3.831
			c1.167-0.547,2.525-1.006,3.83-0.799c0.537,0.085,1.278,0.274,1.56,0.79c0.3,0.548-0.029,1.305-0.259,1.823
			c-1.074,2.426-3.139,4.214-5.128,5.886c-0.157,0.132-0.207,0.388-0.152,0.577c0.715,2.49,0.65,5.157-0.114,7.628
			c-0.383,1.238-0.944,2.413-1.662,3.491c-0.714,1.071-1.698,1.895-2.43,2.939c-0.259,0.368,0.226,0.698,0.553,0.553
			c1.233-0.547,2.151-1.807,2.891-2.9c0.781-1.155,1.387-2.436,1.808-3.764c0.811-2.56,0.898-5.311,0.192-7.9
			c1.862-1.613,3.817-3.332,4.838-5.62C348.971,241.122,349.471,239.71,348.657,238.705z"/>
		<path style="fill:#B44E50;" d="M361.067,249.797c-0.216-0.686-0.585-1.314-1.06-1.852c-0.415-0.47-1.113-1.163-1.784-1.148
			c-0.063,0.001-0.123,0.023-0.178,0.054c0.051-0.749-0.056-1.522-0.393-2.311c-0.66-1.547-2.258-2.584-3.942-2.547
			c0.046-0.605-0.029-1.224-0.318-1.86c-0.778-1.714-2.608-2.758-4.448-2.887c-0.472-0.033-0.578,0.732-0.112,0.829
			c1.623,0.34,3.234,1.068,3.768,2.783c0.542,1.739-0.663,3.382-1.48,4.82c-0.839,1.476-1.613,3.093-2.701,4.406
			c-0.498,0.6-1.08,1.092-1.777,1.447c-0.348,0.177-0.712,0.299-1.096,0.366c-0.344,0.06-0.715,0.06-1.03,0.22
			c-0.068,0.035-0.067,0.125-0.023,0.176c0.391,0.446,1.101,0.419,1.709,0.28c0.058,0.614,0.662,1.258,1.094,1.641
			c0.567,0.504,1.241,0.817,1.997,0.895c0.546,0.056,1.071-0.012,1.578-0.151c-0.012,0.031-0.035,0.057-0.033,0.093
			c0.051,1.232,0.901,2.563,2.056,3.026c1.391,0.558,2.93-0.169,4.048-0.997c1.258-0.93,2.372-2.073,3.302-3.328
			C361.115,252.576,361.516,251.226,361.067,249.797z M348.024,253.844c-0.372-0.236-0.699-0.55-0.999-0.87
			c-0.17-0.181-0.313-0.36-0.51-0.483c0.105-0.032,0.205-0.064,0.294-0.097c0.832-0.304,1.548-0.862,2.138-1.514
			c1.385-1.53,2.3-3.517,3.336-5.286c0.514-0.878,1.028-1.789,1.284-2.735c0.021,0.003,0.037,0.012,0.06,0.013
			c1.814,0.037,3.232,1.344,3.352,3.171c0.116,1.773-0.801,3.337-1.951,4.608c-0.587,0.649-1.238,1.241-1.902,1.811
			c-0.714,0.614-1.466,1.24-2.365,1.563C349.864,254.345,348.85,254.369,348.024,253.844z M358.284,254.421
			c-1.034,1.121-2.295,2.451-3.828,2.83c-0.724,0.179-1.477,0.053-2.028-0.471c-0.548-0.521-0.723-1.219-1.019-1.885
			c-0.018-0.042-0.055-0.056-0.085-0.08c0.971-0.364,1.861-0.996,2.644-1.656c1.727-1.455,3.575-3.449,3.999-5.701
			c0.184,0.211,0.41,0.334,0.641,0.506c0.279,0.208,0.536,0.459,0.753,0.73c0.4,0.498,0.684,1.095,0.794,1.725
			C360.431,252.01,359.286,253.334,358.284,254.421z"/>
		<path style="fill:#B44E50;" d="M348.543,260.891c-0.016-0.506-0.048-1.013-0.095-1.517c-0.092-0.982-0.259-1.958-0.574-2.896
			c-0.606-1.806-1.873-3.592-3.525-4.592c-0.21-0.127-0.518,0.141-0.357,0.357c0.553,0.745,1.286,1.346,1.849,2.088
			c0.576,0.76,0.983,1.62,1.246,2.535c0.25,0.87,0.383,1.775,0.468,2.676c0.045,0.477,0.067,0.955,0.095,1.433
			c0.022,0.39,0.002,0.82,0.284,1.117c0.096,0.101,0.293,0.111,0.388,0C348.605,261.758,348.557,261.31,348.543,260.891z"/>
		<path style="fill:#B44E50;" d="M216.618,179.236c-0.089-0.315-0.174-0.621-0.253-0.904c0,0-41.373,5.655-55.065-8.334
			c0,0-1.786,26.193-18.156,35.718c17.561-5.211,21.431-23.219,20.686-29.023C163.83,176.693,181.334,188.445,216.618,179.236z"/>
		<path style="fill:#B44E50;" d="M145.581,218.487c-0.033,0.005-0.066,0.009-0.116,0.016c-0.028,0.008-0.055,0.016-0.083,0.024
			c-0.329,0.104-0.073,0.056-0.309,0.111c-0.096,0.023-0.193,0.052-0.29,0.07c-0.006,0.001-0.004,0.001-0.009,0.002
			c-0.043,0.002-0.086,0.004-0.129,0.001c-0.006,0-0.003,0-0.008,0c-0.058-0.013-0.115-0.028-0.17-0.048
			c0.154,0.045-0.096-0.099,0.01,0c-0.11-0.103-0.136-0.171-0.183-0.285c-0.073-0.177-0.03,0.031-0.029-0.161
			c0-0.017,0.021-0.179,0.018-0.202c0.028-0.074,0.086-0.222,0.033-0.122c0.097-0.185-0.006,0.001,0.113-0.147
			c0.118-0.147-0.017-0.024,0.134-0.114c0.013-0.008,0.16-0.085,0.186-0.104c0.113-0.044,0.231-0.077,0.348-0.105
			c0.018-0.003,0.014-0.003,0.024-0.006c0.062-0.004,0.123-0.008,0.185-0.007c0.97-0.014,1.648-1.33,0.841-2.031
			c-0.19-0.165-0.292-0.468-0.415-0.696c-0.126-0.233-0.252-0.466-0.379-0.699c-0.253-0.468-0.498-0.943-0.767-1.402
			c-0.571-0.976-1.311-1.836-2.409-2.214c-1.039-0.358-2.149-0.027-2.922,0.719c-0.328,0.317-0.601,0.708-0.823,1.105
			c-0.249,0.446-0.549,1.049-0.393,1.566c0.154,0.512,0.684,0.679,1.14,0.464c0.354-0.167,0.573-0.611,0.773-0.937
			c0.163-0.266,0.292-0.463,0.508-0.681c0.132-0.133,0.167-0.163,0.267-0.223c0.172-0.105,0.126-0.095,0.297-0.129
			c0.04-0.008,0.051-0.011,0.052-0.013c0.003,0,0.001,0,0.005,0c0.07-0.006,0.141-0.008,0.21,0.002
			c0.176,0.025,0.329,0.107,0.474,0.204c0.513,0.344,0.845,0.968,1.156,1.56c0.2,0.381,0.395,0.765,0.592,1.148
			c0.064,0.125,0.128,0.249,0.192,0.373c-0.395,0.231-0.75,0.534-1.03,0.94c-0.57,0.825-0.65,1.91-0.243,2.817
			c0.385,0.858,1.22,1.417,2.163,1.427c0.981,0.011,1.936-0.612,1.895-1.662C146.471,218.57,146.004,218.304,145.581,218.487z"/>
		<path style="fill:#2E344B;" d="M330.621,307.233c-3.346-2.376-6.607-4.869-9.775-7.477c-3.124-2.572-6.147-5.259-9.106-8.019
			c-1.55-1.445-3.083-2.912-4.565-4.427c-0.482-0.493-0.946-1.021-1.41-1.551c-0.287,0.316-0.585,0.644-0.895,0.986
			c0.363,0.403,0.73,0.796,1.08,1.182c1.429,1.571,2.917,3.09,4.421,4.588c3.011,2.999,6.161,5.859,9.399,8.611
			c3.141,2.669,6.376,5.229,9.692,7.677c1.053,0.778,2.131,1.523,3.201,2.277c0.407-0.606,0.78-1.166,1.122-1.683
			C332.728,308.68,331.663,307.973,330.621,307.233z"/>
		<path style="fill:#2E344B;" d="M91.625,198.218c2.998,6.188,7.102,11.89,11.985,16.729c1.24,1.229,2.549,2.388,3.897,3.498
			c0.46-0.348,0.907-0.683,1.343-1.008c-0.999-0.819-1.979-1.661-2.923-2.544c-2.506-2.344-4.834-4.882-6.915-7.612
			c-4.098-5.373-7.329-11.435-9.484-17.839c-0.545-1.619-1.027-3.263-1.482-4.915c-0.324,0.163-0.653,0.329-0.993,0.504
			c0.255,1.196,0.534,2.387,0.862,3.565C88.837,191.904,90.129,195.129,91.625,198.218z"/>
		<path style="fill:#2E344B;" d="M222.829,258.674c-4.951,11.637-13.885,21.518-24.968,27.658c-3.477,1.926-7.339,3.805-11.27,4.541
			c-4.398,0.823-9.322-0.181-13.592-1.292c-8.362-2.175-16.013-6.332-22.336-12.228c-3.433-3.201-6.415-6.865-8.861-10.87
			c-1.771-2.9-3.082-5.952-4.364-9.046c-0.379,0.035-0.751,0.07-1.116,0.104c0.914,3.006,2.342,5.926,3.842,8.597
			c2.075,3.696,4.603,7.147,7.496,10.244c5.967,6.388,13.642,11.131,21.928,13.873c4.246,1.406,8.78,2.319,13.257,2.481
			c4.552,0.165,8.777-1.469,12.833-3.38c7.074-3.334,13.457-8.161,18.687-13.967c4.324-4.799,7.868-10.346,10.448-16.29
			C224.143,258.942,223.481,258.8,222.829,258.674z"/>
		<path style="fill:#2E344B;" d="M207.148,389.589c-1.836,0.456-3.541,1.638-5.272,2.397c-1.807,0.794-3.659,1.496-5.538,2.099
			c-3.749,1.205-7.621,2.017-11.534,2.451c-7.826,0.868-15.845,0.185-23.402-2.03c-4.251-1.246-8.121-3.188-12.18-4.9
			c-0.296-0.125-0.56,0.345-0.316,0.543c3.032,2.462,6.833,4.116,10.482,5.451c3.853,1.41,7.856,2.41,11.922,2.959
			c8.104,1.094,16.404,0.566,24.273-1.686c2.222-0.635,4.405-1.403,6.529-2.314c1.991-0.854,4.465-1.736,6.005-3.304
			C208.824,390.535,208.109,389.35,207.148,389.589z"/>
		<path style="fill:#2E344B;" d="M216.274,393.629c-1.361,0.504-2.312,1.563-3.436,2.458c-1.133,0.902-2.392,1.672-3.661,2.368
			c-1.278,0.701-2.602,1.314-3.942,1.886c-0.41,0.175-3.375,1.263-2.838,1.994c0.351,0.478,1.125,0.223,1.608,0.12
			c0.712-0.15,1.404-0.396,2.087-0.645c1.479-0.539,2.945-1.129,4.36-1.82c1.369-0.668,2.653-1.458,3.856-2.393
			c0.596-0.463,1.174-0.965,1.648-1.556c0.519-0.647,0.762-1.18,0.866-1.995C216.856,393.779,216.516,393.539,216.274,393.629z"/>
		<path style="fill:#2E344B;" d="M122.1,318.258c0.006-0.028,0.017-0.054,0.016-0.084c-0.001-0.027-0.01-0.049-0.014-0.074
			c0.011-1.04,0.003-2.08-0.082-3.12c-0.132-1.608-0.364-3.215-0.657-4.801c-0.288-1.563-0.572-3.106-1.431-4.458
			c-0.032-0.05-0.103-0.027-0.108,0.029c-0.137,1.665,0.253,3.283,0.447,4.938c0.195,1.665,0.284,3.335,0.348,5.01
			c0.008,0.216,0.004,0.431,0.01,0.647c-0.183-0.184-0.365-0.367-0.552-0.546c-0.366-0.349-0.713-0.722-1.086-1.063
			c-0.376-0.343-0.716-0.722-1.201-0.906c-0.141-0.053-0.244,0.101-0.222,0.222c0.092,0.503,0.431,0.914,0.728,1.316
			c0.31,0.42,0.663,0.812,1.007,1.204c0.333,0.381,0.701,0.735,1.063,1.088c0.093,0.091,0.193,0.171,0.288,0.258
			c-0.002,0.931-0.022,1.861-0.068,2.793c-0.071,1.426-0.138,3.032,0.624,4.302c0.258,0.429,1.094,0.292,1.022-0.277
			C121.961,322.586,122.072,320.423,122.1,318.258z"/>
		<path style="fill:#2E344B;" d="M241.203,324.182c-0.339-1.293-0.698-2.581-1.142-3.842c-0.23-0.656-0.47-1.308-0.717-1.957
			c-0.256-0.672-0.674-1.238-0.949-1.891c-0.018-0.042-0.082-0.027-0.07,0.019c0.179,0.662,0.188,1.379,0.362,2.053
			c0.173,0.671,0.336,1.344,0.492,2.02c0.288,1.255,0.598,2.505,0.868,3.764c0.558,2.608,1.018,5.237,1.662,7.824
			c0.104,0.416,0.764,0.332,0.752-0.102C242.381,329.407,241.877,326.756,241.203,324.182z"/>
		<g>
			<path style="fill:#2E344B;" d="M177.095,190.024c0.275-0.569,0.12-0.273,0.037-0.091
				C177.119,189.964,177.109,189.996,177.095,190.024z"/>
			<path style="fill:#2E344B;" d="M176.827,187.947c-0.307-0.257-0.607-0.505-1-0.621c-0.45-0.132-0.935-0.093-1.387-0.017
				c-0.35,0.059-0.694,0.168-1.029,0.283c-0.815,0.279-1.577,0.707-2.277,1.206c-1.402,0.998-2.927,2.311-3.344,4.05
				c-0.149,0.622,0.054,1.258,0.563,1.651c0.488,0.377,1.204,0.453,1.745,0.123c0.461-0.281,0.86-0.594,1.264-0.953
				c0.109-0.097,0.223-0.188,0.337-0.281c-0.195,0.164,0.255-0.203,0.387-0.31c-0.014,0.009-0.022,0.014-0.037,0.023
				c0.017-0.011,0.034-0.023,0.051-0.034c0.003-0.003,0.009-0.008,0.012-0.01c0.049-0.04,0.122-0.085,0.165-0.109
				c0.277-0.187,0.546-0.384,0.837-0.553c0.366-0.212,0.744-0.398,1.132-0.567c0.335-0.14,0.671-0.279,1.006-0.421
				c-0.169,0.071-0.338,0.143-0.507,0.214c0.411-0.17,0.856-0.292,1.249-0.497c0.186-0.097,0.34-0.214,0.507-0.343
				c0.279-0.215,0.471-0.465,0.608-0.79c0.007-0.016,0.016-0.036,0.025-0.057C177.402,189.3,177.406,188.43,176.827,187.947z"/>
			<path style="fill:#2E344B;" d="M172.085,193.078c0.239-0.148,0.25-0.164,0.19-0.13c-0.059,0.039-0.117,0.081-0.176,0.119
				C172.095,193.07,172.089,193.074,172.085,193.078z"/>
		</g>
		<g>
			<path style="fill:#2E344B;" d="M207.423,186.659c-0.249-0.419-0.556-0.663-0.954-0.934c-0.732-0.497-1.563-0.823-2.405-1.086
				c-0.821-0.256-1.656-0.42-2.517-0.457c-0.368-0.016-0.737-0.015-1.105,0.003c-0.457,0.022-0.878,0.071-1.256,0.363
				c-0.46,0.355-0.83,1.071-0.592,1.661c0.163,0.407,0.363,0.769,0.756,0.999c0.233,0.136,0.502,0.187,0.759,0.255
				c0.304,0.08,0.605,0.172,0.902,0.275c0.51,0.177,1.021,0.364,1.525,0.562c0.368,0.165,0.729,0.338,1.085,0.529
				c0.197,0.106,0.404,0.192,0.606,0.29c0.101,0.049,0.199,0.103,0.3,0.151c0.369,0.178,0.672,0.246,1.046,0.302
				c0.438,0.039,0.845,0.013,1.266-0.24c0.399-0.239,0.71-0.635,0.834-1.085C207.821,187.71,207.702,187.13,207.423,186.659z"/>
			<path style="fill:#2E344B;" d="M205.734,189.602c-0.061-0.008-0.106-0.021-0.162-0.029c-0.117-0.01-0.235-0.023-0.358-0.041
				L205.734,189.602z"/>
		</g>
		<path style="fill:#2E344B;" d="M181.134,202.766c-0.397-2.645-1.823-5.136-4.243-4.948c-1.107,0.086-1.905,0.683-2.482,1.596
			c-0.258,0.408-0.389,0.89-0.515,1.354c-0.131,0.478-0.181,0.96-0.214,1.453c-0.194,2.876,3.033,10.182,6.607,5.675
			C181.152,206.803,181.43,204.742,181.134,202.766z"/>
		<path style="fill:#2E344B;" d="M205.684,200.246c-0.365-2.433-1.677-4.726-3.905-4.553c-1.019,0.079-1.753,0.628-2.284,1.469
			c-0.237,0.376-0.357,0.82-0.474,1.246c-0.12,0.44-0.167,0.883-0.197,1.337c-0.178,2.647,2.792,9.37,6.08,5.223
			C205.701,203.961,205.957,202.064,205.684,200.246z"/>
		<path style="fill:#B44E50;" d="M195.763,210.19c-0.59-0.452-1.238-0.815-1.788-1.32c-0.57-0.523-1.047-1.12-1.428-1.794
			c-0.382-0.677-0.66-1.395-0.915-2.127c-0.063-0.179-0.366-1.225-0.761-1.032c-1.063,0.519-0.315,2.666,0.025,3.452
			c0.54,1.247,1.368,2.39,2.429,3.243c0.88,0.708,2.174,1.255,2.158,2.559c-0.006,0.542-0.212,1.058-0.468,1.529
			c-0.138,0.254-0.292,0.498-0.43,0.751c-0.158,0.291-0.242,0.614-0.438,0.882c-0.236,0.322,0.156,0.799,0.519,0.675
			c0.724-0.245,1.278-0.442,1.762-1.08c0.429-0.566,0.717-1.237,0.839-1.937C197.533,212.472,196.982,211.125,195.763,210.19z"/>
		<path style="fill:#B44E50;" d="M199.846,222.378c-0.045-0.035-0.092-0.068-0.137-0.102c-0.72-0.848-2.18-1.055-3.21-1.075
			c-1.182-0.024-2.307,0.213-3.381,0.7c-0.884,0.4-1.708,1.011-2.348,1.741c-0.594,0.677-1.469,1.824-1.162,2.789
			c0.117,0.368,0.56,0.593,0.912,0.371c0.367-0.232,0.583-0.627,0.828-0.975c0.22-0.313,0.464-0.602,0.742-0.866
			c0.54-0.513,1.202-0.916,1.908-1.152c0.83-0.277,1.711-0.382,2.583-0.342c0.464,0.021,0.928,0.057,1.388,0.12
			c0.258,0.035,0.51,0.079,0.771,0.079c0.259,0.001,0.511-0.052,0.768-0.03C200.25,223.699,200.316,222.732,199.846,222.378z"/>
		<path style="fill:#FFFFFF;" d="M180.315,198.481c-0.078-0.277-0.218-0.518-0.421-0.723c-0.11-0.085-0.221-0.171-0.331-0.256
			c-0.255-0.148-0.531-0.223-0.827-0.224c-0.226-0.009-0.436,0.038-0.631,0.141c-0.203,0.066-0.379,0.179-0.527,0.339
			c-0.16,0.148-0.273,0.324-0.339,0.527c-0.103,0.195-0.149,0.405-0.141,0.631c0.02,0.145,0.039,0.29,0.059,0.435
			c0.078,0.278,0.218,0.519,0.421,0.723c0.111,0.085,0.221,0.171,0.331,0.256c0.256,0.148,0.531,0.223,0.827,0.224
			c0.226,0.008,0.436-0.038,0.631-0.141c0.203-0.066,0.379-0.179,0.527-0.339c0.16-0.148,0.273-0.324,0.339-0.527
			c0.102-0.195,0.149-0.406,0.141-0.631L180.315,198.481z"/>
		<path style="fill:#FFFFFF;" d="M205.331,196.503c-0.072-0.255-0.201-0.477-0.388-0.665c-0.102-0.079-0.203-0.157-0.305-0.236
			c-0.235-0.136-0.489-0.205-0.761-0.206c-0.208-0.008-0.401,0.035-0.581,0.13c-0.187,0.061-0.348,0.165-0.485,0.312
			c-0.147,0.136-0.251,0.298-0.312,0.485c-0.094,0.18-0.138,0.373-0.13,0.581c0.018,0.133,0.036,0.267,0.054,0.4
			c0.072,0.255,0.201,0.477,0.388,0.665c0.102,0.079,0.203,0.157,0.305,0.236c0.235,0.136,0.489,0.205,0.761,0.206
			c0.208,0.008,0.401-0.035,0.581-0.13c0.187-0.061,0.348-0.165,0.485-0.312c0.147-0.136,0.251-0.298,0.312-0.485
			c0.094-0.18,0.138-0.373,0.13-0.581L205.331,196.503z"/>
		<path style="fill:#C85F64;" d="M176.266,213.527c0.317,2.321-2.594,4.635-6.503,5.17c-3.909,0.534-7.335-0.914-7.652-3.235
			c-0.317-2.321,2.594-4.636,6.503-5.17C172.522,209.758,175.948,211.206,176.266,213.527z"/>
		<path style="fill:#C85F64;" d="M218.456,208.305c0.256,1.876-2.097,3.746-5.256,4.178c-3.159,0.432-5.928-0.739-6.184-2.614
			c-0.256-1.876,2.097-3.746,5.256-4.178C215.431,205.259,218.2,206.429,218.456,208.305z"/>
		<path style="fill:#C85F64;" d="M173.618,198.36c-0.052-0.218-0.167-0.442-0.339-0.589c-0.11-0.093-0.217-0.19-0.322-0.289
			c-0.102-0.097-0.213-0.185-0.317-0.28c-0.055-0.05-0.11-0.101-0.164-0.153c-0.117-0.112-0.249-0.199-0.404-0.249
			c-0.121-0.039-0.23-0.035-0.35-0.019c-0.011,0-0.021,0.008-0.032,0.009c-0.167,0.017-0.326,0.08-0.454,0.208
			c-0.146,0.146-0.229,0.357-0.223,0.566c0,0.008-0.003,0.017-0.004,0.025c-0.007,0.151,0.027,0.217,0.078,0.338
			c0.052,0.123,0.127,0.232,0.231,0.316c0.104,0.084,0.209,0.165,0.315,0.245c0.118,0.091,0.237,0.184,0.365,0.259
			c0.126,0.073,0.253,0.143,0.383,0.21c0.111,0.057,0.219,0.1,0.343,0.117c0.057,0.008,0.114,0.015,0.171,0.021
			c0.111,0.011,0.223-0.013,0.33-0.04C173.526,198.978,173.688,198.65,173.618,198.36z"/>
		<path style="fill:#C85F64;" d="M173.018,200.188c-0.064-0.151-0.161-0.261-0.3-0.351c-0.237-0.154-0.487-0.222-0.769-0.199
			c-0.161,0.013-0.321,0.009-0.482,0.009c-0.161,0-0.327,0.012-0.487,0.021c-0.15,0.008-0.294,0.043-0.438,0.083
			c-0.097,0.027-0.198,0.066-0.286,0.113c-0.159,0.084-0.245,0.214-0.347,0.355c-0.077,0.133-0.116,0.276-0.116,0.429
			c0.001,0.154,0.039,0.297,0.116,0.43c0.126,0.275,0.374,0.388,0.634,0.493c0.158,0.064,0.294,0.094,0.476,0.101
			c0.243,0.009,0.498-0.003,0.734-0.057c0.163-0.037,0.325-0.087,0.482-0.145c0.21-0.077,0.395-0.16,0.553-0.327
			c0.146-0.155,0.188-0.283,0.269-0.476c0.009-0.065,0.017-0.13,0.026-0.195C173.086,200.37,173.065,200.276,173.018,200.188z"/>
		<path style="fill:#C85F64;" d="M206.784,193.003c-0.531-0.224-0.944,0.353-1.135,0.771c-0.06,0.131-0.122,0.261-0.185,0.391
			c-0.033,0.067-0.068,0.133-0.1,0.201c-0.038,0.078-0.076,0.16-0.099,0.243c-0.027,0.096-0.027,0.191-0.03,0.288
			c-0.009,0.286,0.188,0.551,0.442,0.658c0.122,0.052,0.241,0.067,0.373,0.049c0.169-0.023,0.28-0.092,0.413-0.198
			c0.1-0.079,0.185-0.178,0.239-0.294c0.032-0.068,0.063-0.136,0.094-0.204c0.08-0.177,0.156-0.355,0.231-0.534
			C207.209,193.943,207.316,193.227,206.784,193.003z"/>
		<path style="fill:#C85F64;" d="M208.851,195.777c-0.241-0.266-0.625-0.248-0.934-0.147c-0.117,0.038-0.232,0.081-0.346,0.127
			c-0.188,0.077-0.41,0.148-0.563,0.287c-0.105,0.095-0.224,0.223-0.295,0.344c-0.142,0.242-0.017,0.598,0.269,0.662
			c0.102,0.023,0.21,0.024,0.314,0.034c0.037,0.003,0.074,0.009,0.111,0.011c0.084,0.007,0.171-0.014,0.252-0.033
			c0.132-0.03,0.266-0.052,0.4-0.072c0.052-0.006,0.104-0.013,0.157-0.017c0.076-0.006,0.154-0.009,0.227-0.028
			c0.07-0.019,0.137-0.056,0.203-0.086c0.125-0.056,0.25-0.16,0.308-0.285c0.022-0.053,0.044-0.105,0.066-0.157
			c0.027-0.088,0.031-0.175,0.012-0.263C209.013,196.007,208.953,195.889,208.851,195.777z"/>
	</g>
	<path style="fill:#2E344B;" d="M469.144,435.61H30.856c-2.067,0-3.743-1.676-3.743-3.743v-1.073c0-2.067,1.676-3.743,3.743-3.743
		h438.288c2.067,0,3.743,1.676,3.743,3.743v1.073C472.887,433.934,471.211,435.61,469.144,435.61z"/>
	<g>
		<polygon style="fill:#D3723F;" points="307.147,191.145 313.839,194.13 315.413,188.341 		"/>
		<path style="fill:#D3723F;" d="M341.208,121.902l-3.362-4.802c-0.742-1.06-1.955-1.691-3.249-1.691h-25.45
			c-2.19,0-3.966,1.775-3.966,3.966v4.22v64.13c0,2.19,1.776,3.966,3.966,3.966h91.36c2.19,0,3.966-1.775,3.966-3.966v-60.165
			c0-2.19-1.776-3.966-3.966-3.966h-56.051C343.163,123.594,341.95,122.962,341.208,121.902z"/>
		<path style="fill:#EBAB6F;" d="M315.265,194.491h91.939c2.03,0,3.676-1.646,3.676-3.676v-60.744c0-2.03-1.646-3.676-3.676-3.676
			h-91.939c-2.03,0-3.676,1.646-3.676,3.676v60.744C311.589,192.845,313.235,194.491,315.265,194.491z"/>
		
			<ellipse transform="matrix(0.1602 -0.9871 0.9871 0.1602 214.6464 502.2722)" style="fill:#FFFFFF;" cx="402.498" cy="124.993" rx="24.065" ry="24.065"/>
		<path style="fill:#C85F64;" d="M407.501,124.993l7.195-7.195c1.381-1.382,1.381-3.621,0-5.003c-1.381-1.381-3.621-1.381-5.003,0
			l-7.195,7.195l-7.195-7.195c-1.381-1.381-3.621-1.381-5.003,0c-1.382,1.382-1.382,3.621,0,5.003l7.195,7.195l-7.195,7.195
			c-1.382,1.381-1.382,3.621,0,5.003c1.381,1.381,3.621,1.381,5.003,0l7.195-7.195l7.195,7.195c1.381,1.381,3.621,1.381,5.003,0
			c1.381-1.381,1.381-3.621,0-5.003L407.501,124.993z"/>
	</g>
	<g>
		<text transform="matrix(1 0 0 1 162.8539 112.5493)" style="fill:#FFFFFF; font-family:'Quicksand-Bold'; font-size:71.4102px;">?</text>
		
			<text transform="matrix(0.9285 0.3713 -0.3713 0.9285 206.7097 126.9647)" style="fill:#FFFFFF; font-family:'Quicksand-Bold'; font-size:60.6749px;">?</text>
		
			<text transform="matrix(0.932 -0.3624 0.3624 0.932 117.8812 136.4516)" style="fill:#FFFFFF; font-family:'Quicksand-Bold'; font-size:60.6746px;">?</text>
	</g>
	<g>
		<path style="fill:#4F6E59;" d="M59.299,401.763c0,0-6.759-37.129,14.364-37.129c21.124,0,14.765,35.898,14.765,35.898
			L59.299,401.763z"/>
		<polygon style="fill:#C85F64;" points="90.49,398.643 56.837,398.643 58.536,427.03 88.792,427.03 		"/>
		<path style="fill:#FFFFFF;" d="M72.102,365.951c-0.025-0.137-0.055-0.272-0.088-0.407c-0.075-0.311-0.209-0.604-0.345-0.892
			c-0.118-0.25-0.241-0.496-0.405-0.718c-0.097-0.132-0.197-0.262-0.3-0.39c-0.101-0.125-0.197-0.211-0.34-0.287
			c-0.248-0.132-0.539,0.033-0.549,0.315c-0.01,0.277,0.094,0.528,0.16,0.795c0.064,0.259,0.146,0.514,0.21,0.773
			c0.062,0.253,0.106,0.51,0.173,0.762c0.033,0.126,0.064,0.253,0.091,0.38c0.024,0.11,0.054,0.221,0.113,0.319
			c0.063,0.106,0.147,0.19,0.253,0.253c0.048,0.022,0.079,0.035,0.106,0.046c0.245,0.128,0.578,0.086,0.738-0.15
			c0.005-0.003,0.001,0.001,0.01-0.007c0.004-0.004,0.004-0.01,0.008-0.014c0.008-0.013,0.023-0.019,0.029-0.033
			c-0.014,0.014-0.015,0.016-0.025,0.025c0.078-0.084,0.137-0.178,0.168-0.289C72.156,366.267,72.132,366.116,72.102,365.951z"/>
		<g>
			<path style="fill:#FFFFFF;" d="M62.973,371.426c0.001,0,0.002,0.001,0.002,0.001C63.023,371.448,63.118,371.461,62.973,371.426z"
				/>
			<path style="fill:#FFFFFF;" d="M64.184,372.125c-0.125-0.131-0.257-0.239-0.411-0.336c-0.086-0.055-0.18-0.091-0.274-0.129
				c0.027,0.011,0.042,0.017-0.027-0.014c-0.031-0.014-0.063-0.028-0.094-0.042c-0.105-0.048-0.209-0.096-0.316-0.14
				c-0.03-0.013-0.063-0.032-0.095-0.039c0.003,0.001,0.002,0.001,0.005,0.001c-0.133-0.059-0.265-0.121-0.395-0.188
				c-0.516-0.265-0.988-0.605-1.489-0.896c-0.421-0.244-0.946,0.251-0.679,0.679c0.18,0.288,0.384,0.552,0.641,0.775
				c0.263,0.228,0.541,0.442,0.829,0.638c0.249,0.169,0.506,0.33,0.783,0.448c0.177,0.076,0.371,0.178,0.564,0.207
				c0.117,0.018,0.241,0.049,0.359,0.045c0.115-0.004,0.235-0.033,0.348-0.055C64.37,372.992,64.461,372.416,64.184,372.125z"/>
		</g>
		<path style="fill:#FFFFFF;" d="M71.59,372.867c-0.181-0.325-0.432-0.614-0.69-0.881c-0.123-0.127-0.242-0.267-0.377-0.382
			c-0.073-0.062-0.148-0.121-0.223-0.182c-0.057-0.047-0.114-0.097-0.177-0.136c-0.043-0.026-0.204-0.091-0.108-0.046
			c0.077,0.036-0.025-0.011-0.032-0.014c-0.168-0.076-0.34-0.084-0.494,0.035c-0.146,0.113-0.197,0.289-0.159,0.467
			c0.004,0.016,0.006,0.033,0.01,0.048c0.001,0.005,0.002,0.011,0.004,0.016c-0.011-0.093-0.01-0.094,0.002-0.003
			c0.012,0.089,0.039,0.16,0.079,0.242c0.039,0.08,0.081,0.159,0.122,0.238c0.073,0.143,0.167,0.273,0.257,0.406
			c0.207,0.308,0.42,0.624,0.69,0.881c0.087,0.082,0.176,0.159,0.274,0.228c0.159,0.112,0.362,0.138,0.549,0.094
			c0.201-0.047,0.332-0.219,0.388-0.407C71.766,373.268,71.69,373.046,71.59,372.867z"/>
		<path style="fill:#FFFFFF;" d="M60.993,380.784c-0.164-0.151-0.434-0.281-0.647-0.339c-0.151-0.041-0.299-0.03-0.452-0.03
			c-0.117,0-0.234-0.005-0.35-0.008c-0.216-0.005-0.434,0.022-0.65,0.022c-0.107,0-0.215-0.011-0.321-0.004
			c-0.073,0.005-0.162,0.013-0.23,0.03c-0.049,0.011-0.094,0.028-0.138,0.052c-0.006,0.002-0.006,0.002-0.015,0.005
			c-0.241,0.077-0.321,0.368-0.146,0.554c0.033,0.036,0.036,0.04,0.012,0.01c0.025,0.043,0.057,0.08,0.095,0.111
			c0.056,0.052,0.133,0.103,0.202,0.14c0.117,0.062,0.255,0.103,0.379,0.147c0.229,0.081,0.465,0.164,0.706,0.197
			c0.269,0.036,0.6,0.095,0.867,0.031c0.23-0.055,0.541-0.212,0.691-0.402C61.111,381.15,61.151,380.929,60.993,380.784z"/>
		<path style="fill:#FFFFFF;" d="M69.015,380.695c-0.097-0.158-0.251-0.261-0.402-0.362c-0.152-0.102-0.308-0.199-0.459-0.303
			c-0.151-0.103-0.314-0.186-0.472-0.277c-0.195-0.113-0.397-0.184-0.608-0.26c-0.186-0.067-0.412,0.033-0.524,0.179
			c-0.117,0.152-0.148,0.386-0.039,0.554c0.121,0.187,0.242,0.365,0.407,0.517c0.172,0.158,0.344,0.315,0.539,0.444
			c0.157,0.104,0.315,0.21,0.479,0.303c0.163,0.092,0.329,0.171,0.52,0.178c0.159,0.007,0.303-0.01,0.45-0.083
			c0.156-0.078,0.272-0.283,0.261-0.456C69.158,380.966,69.099,380.831,69.015,380.695z"/>
		<g>
			<path style="fill:#FFFFFF;" d="M65.273,388.327c-0.001,0.001-0.001,0.001-0.001,0.002c0.007-0.007,0.007-0.008,0.016-0.018
				C65.284,388.317,65.277,388.32,65.273,388.327z"/>
			<path style="fill:#FFFFFF;" d="M65.261,388.346c0.005-0.005,0.007-0.012,0.011-0.017
				C65.241,388.363,65.232,388.374,65.261,388.346z"/>
			<path style="fill:#FFFFFF;" d="M65.272,387.71c0.007,0.007,0.007,0.008,0.016,0.018c-0.03-0.039-0.06-0.078-0.09-0.117
				c-0.085-0.092-0.191-0.126-0.302-0.173c-0.118-0.049-0.202-0.08-0.341-0.087c-0.194-0.008-0.402-0.003-0.592,0.032
				c-0.138,0.025-0.275,0.055-0.412,0.082c-0.034,0.007-0.069,0.011-0.103,0.021c-0.094,0.026-0.175,0.074-0.244,0.142
				c0.02-0.017,0.041-0.033,0.061-0.05c-0.006,0.016-0.08,0.042-0.096,0.052c-0.05,0.031-0.076,0.08-0.11,0.121
				c-0.004,0.003-0.008,0.007-0.013,0.01c-0.159,0.123-0.176,0.298-0.068,0.438c0.058,0.111,0.155,0.206,0.273,0.253
				c0.036,0.021,0.021,0.006-0.047-0.043c0.05,0.054,0.109,0.092,0.178,0.114c0.053,0.022,0.096,0.034,0.152,0.045
				c0.143,0.029,0.285,0.06,0.429,0.086c0.186,0.033,0.384,0.039,0.573,0.033c0.134-0.004,0.227-0.033,0.343-0.081
				c0.097-0.04,0.179-0.072,0.26-0.135c0.057-0.037,0.099-0.088,0.134-0.146C65.429,388.158,65.429,387.878,65.272,387.71z"/>
		</g>
		<path style="fill:#FFFFFF;" d="M61.122,393.637c-0.064-0.15-0.191-0.281-0.357-0.319c-0.186-0.042-0.352-0.054-0.531,0.017
			c-0.103,0.04-0.207,0.076-0.311,0.113c-0.122,0.044-0.238,0.103-0.357,0.153c-0.028,0.011-0.056,0.023-0.084,0.034
			c-0.07,0.028-0.141,0.054-0.21,0.083c-0.111,0.047-0.219,0.099-0.329,0.148c-0.011,0.005-0.009,0.004-0.016,0.007
			c-0.021,0.009-0.043,0.017-0.064,0.026c-0.044,0.018-0.089,0.035-0.134,0.052c-0.226,0.084-0.463,0.139-0.676,0.254
			c-0.315,0.169-0.228,0.648,0.097,0.743c0.232,0.067,0.482,0.057,0.721,0.048c0.262-0.009,0.536-0.025,0.793-0.076
			c0.253-0.051,0.521-0.131,0.752-0.242c0.266-0.128,0.557-0.264,0.679-0.55C61.166,393.957,61.196,393.812,61.122,393.637z"/>
		<path style="fill:#FFFFFF;" d="M72.376,392.958c0.008-0.061,0.001-0.121-0.02-0.18c0.009-0.078-0.049-0.139-0.128-0.128
			c-0.031-0.013-0.06-0.032-0.096-0.032c-0.023,0.003-0.046,0.006-0.069,0.009c0.03-0.003,0.03-0.003-0.001,0.001
			c0.039,0.011,0.079,0.021,0.118,0.032c0,0,0,0-0.001,0c-0.125-0.052-0.247-0.043-0.379-0.01c-0.12,0.03-0.229,0.061-0.334,0.132
			c-0.147,0.1-0.297,0.196-0.451,0.286c-0.15,0.088-0.303,0.171-0.458,0.25c-0.085,0.043-0.163,0.084-0.241,0.138
			c-0.112,0.077-0.237,0.147-0.332,0.244c-0.195,0.198-0.257,0.545-0.102,0.787c0.159,0.247,0.444,0.37,0.733,0.298
			c0.26-0.064,0.513-0.247,0.714-0.414c0.141-0.117,0.277-0.239,0.409-0.365c0.129-0.124,0.254-0.252,0.375-0.384
			c0.082-0.09,0.146-0.178,0.19-0.292c0.013-0.034,0.024-0.07,0.036-0.104C72.373,393.133,72.383,393.046,72.376,392.958z"/>
		<path style="fill:#FFFFFF;" d="M75.756,385.599c-0.028-0.025-0.057-0.048-0.088-0.07c-0.004-0.002-0.007-0.004-0.011-0.006
			c-0.142-0.077-0.353-0.103-0.492,0c-0.037,0.028-0.076,0.054-0.114,0.08c-0.055,0.021-0.108,0.045-0.157,0.083
			c-0.055,0.043-0.104,0.089-0.155,0.135c-0.049,0.044-0.101,0.086-0.152,0.127c-0.14,0.102-0.285,0.195-0.422,0.302l0.137-0.106
			c-0.299,0.231-0.669,0.372-0.913,0.666c-0.148,0.177-0.209,0.388-0.116,0.611c0.039,0.092,0.093,0.162,0.172,0.224
			c0.107,0.082,0.205,0.103,0.339,0.12c0.077,0.01,0.162,0.004,0.24-0.002c0.189-0.015,0.352-0.09,0.517-0.177
			c0.154-0.081,0.303-0.172,0.443-0.274c0.178-0.129,0.327-0.282,0.467-0.45c0.082-0.1,0.162-0.203,0.238-0.307
			c0.025-0.034,0.052-0.069,0.073-0.106c0.045-0.078,0.066-0.16,0.073-0.245c0.016-0.043,0.032-0.087,0.046-0.131
			C75.931,385.919,75.88,385.706,75.756,385.599z"/>
		<g>
			<path style="fill:#FFFFFF;" d="M82.593,365.544c-0.018-0.089-0.009-0.184-0.032-0.273c-0.018-0.071-0.05-0.163-0.086-0.224
				c-0.052-0.089-0.182-0.126-0.196-0.224c-0.005-0.032-0.046-0.027-0.061-0.008c-0.011,0.015-0.023,0.03-0.034,0.045
				c-0.174-0.019-0.33,0.074-0.454,0.191c-0.108,0.102-0.219,0.216-0.304,0.337c-0.159,0.229-0.279,0.477-0.41,0.722
				c-0.128,0.238-0.258,0.475-0.387,0.712c-0.065,0.119-0.126,0.24-0.184,0.362c-0.074,0.155-0.123,0.281-0.128,0.455
				c-0.007,0.075,0,0.149,0.021,0.223c0.069,0.181,0.085,0.214,0.049,0.095c0.086,0.214,0.244,0.363,0.479,0.378
				c0.029,0.004,0.066,0.009,0.114,0.016c0.12,0,0.232-0.031,0.336-0.091c0.1-0.051,0.189-0.115,0.263-0.2
				c0.124-0.141,0.238-0.294,0.336-0.454c0.178-0.289,0.314-0.585,0.442-0.9c0.111-0.273,0.188-0.534,0.232-0.826
				c0.022-0.073,0.028-0.146,0.019-0.22C82.601,365.609,82.596,365.572,82.593,365.544z"/>
			<path style="fill:#FFFFFF;" d="M80.888,368.34c-0.008,0-0.015-0.004-0.023-0.004C80.771,368.322,80.777,368.324,80.888,368.34z"
				/>
		</g>
		<path style="fill:#FFFFFF;" d="M88.879,375.921c-0.157-0.121-0.349-0.122-0.523-0.037c-0.054,0.027-0.112,0.049-0.165,0.078
			c-0.059,0.032-0.111,0.079-0.164,0.12c-0.002,0.002,0,0-0.002,0.002c-0.092,0.074-0.192,0.137-0.289,0.204
			c-0.214,0.148-0.426,0.294-0.656,0.418c-0.222,0.119-0.449,0.236-0.678,0.34c-0.019,0.009-0.039,0.017-0.058,0.026
			c-0.002,0.001,0,0-0.003,0.001c-0.096,0.038-0.19,0.079-0.284,0.124c-0.18,0.086-0.349,0.167-0.449,0.355
			c-0.139,0.26-0.059,0.566,0.19,0.725c0.318,0.203,0.769,0.062,1.098-0.059c0.3-0.11,0.583-0.238,0.85-0.413
			c0.253-0.166,0.509-0.349,0.727-0.559c0.101-0.097,0.193-0.205,0.283-0.312c0.073-0.087,0.149-0.171,0.193-0.276
			c0.034-0.08,0.067-0.159,0.097-0.24C89.113,376.242,89.014,376.026,88.879,375.921z"/>
		<path style="fill:#FFFFFF;" d="M77.563,375.249c0.047-0.111-0.055-0.206-0.164-0.159c-0.007,0.003-0.014,0.006-0.021,0.009
			c-0.068-0.004-0.136,0.003-0.201,0.022c-0.224,0.007-0.449,0.22-0.603,0.352c-0.172,0.147-0.299,0.351-0.415,0.545
			c-0.118,0.198-0.21,0.408-0.285,0.626c-0.091,0.261-0.08,0.546-0.043,0.815c0.026,0.195,0.25,0.342,0.425,0.366
			c0.196,0.026,0.41-0.064,0.509-0.244c0.056-0.102,0.127-0.211,0.154-0.325c0.005-0.012,0.01-0.023,0.016-0.035
			c0.035-0.079,0.07-0.158,0.097-0.24c0.056-0.174,0.113-0.349,0.179-0.52c0.007-0.017,0.013-0.034,0.02-0.051
			c0.017-0.032,0.031-0.069,0.045-0.1c0.054-0.114,0.101-0.228,0.141-0.348c0.025-0.076,0.054-0.151,0.083-0.226
			c0.015-0.037,0.063-0.154,0.058-0.136c0.018-0.065,0.013-0.13-0.002-0.194c0.003-0.02,0.007-0.04,0.01-0.061
			C77.567,375.315,77.568,375.282,77.563,375.249z"/>
		<g>
			<path style="fill:#FFFFFF;" d="M89.3,388.598c0.044,0.006,0.087,0.013,0.13,0.019c0.017,0.003,0.035,0.004,0.052,0.006
				C89.422,388.614,89.361,388.606,89.3,388.598z"/>
			<path style="fill:#FFFFFF;" d="M89.862,388.676c-0.007-0.001-0.139-0.012-0.14-0.016c0.077,0.01,0.093,0.013,0.048,0.006
				c-0.022-0.003-0.044-0.006-0.066-0.01c-0.091-0.014-0.182-0.027-0.273-0.039c-0.106-0.016-0.211-0.036-0.318-0.035
				c-0.086,0.001-0.172,0.005-0.258,0.005c-0.164,0-0.329-0.006-0.492-0.019c-0.385-0.029-0.946-0.01-1.169,0.36
				c0.047-0.047,0.093-0.093,0.139-0.139c-0.029,0.017-0.059,0.034-0.088,0.05c-0.134,0.074-0.189,0.268-0.105,0.399
				c0.013,0.02,0.026,0.039,0.038,0.058c0.021,0.063,0.051,0.121,0.105,0.186c0.025,0.029,0.05,0.062,0.077,0.089
				c0.121,0.12,0.3,0.206,0.458,0.265c0.25,0.095,0.514,0.119,0.779,0.141c0.265,0.022,0.535,0.041,0.797-0.011
				c0.212-0.042,0.415-0.117,0.616-0.195c0.262-0.101,0.438-0.318,0.399-0.611C90.37,388.866,90.142,388.706,89.862,388.676z"/>
		</g>
		<path style="fill:#FFFFFF;" d="M90.58,395.281c0.011,0.011,0.022,0.022,0.033,0.033c-0.005-0.035-0.034-0.063-0.054-0.094
			c-0.01-0.016-0.014-0.031-0.026-0.045c-0.053-0.061-0.12-0.112-0.189-0.129c-0.231-0.06-0.465-0.099-0.699-0.149
			c-0.159-0.034-0.311-0.068-0.473-0.089c-0.031-0.004-0.04-0.005-0.043-0.005c-0.008-0.001-0.009-0.002-0.028-0.005
			c-0.058-0.009-0.116-0.018-0.174-0.027c-0.268-0.04-0.548-0.074-0.818-0.086c-0.116-0.005-0.235-0.017-0.351-0.01
			c-0.154,0.008-0.304,0.076-0.458,0.1c-0.156,0.024-0.278,0.198-0.295,0.342c-0.02,0.17,0.055,0.315,0.196,0.41
			c0.031,0.021,0.063,0.042,0.094,0.063c0.052,0.03,0.064,0.039,0.036,0.026c-0.025-0.012-0.017-0.002,0.024,0.03
			c0.04,0.046,0.087,0.079,0.141,0.1c0.134,0.075,0.3,0.114,0.448,0.155c0.268,0.073,0.566,0.108,0.843,0.12
			c0.516,0.022,1.07-0.06,1.557-0.234c0.161-0.058,0.282-0.192,0.282-0.371C90.626,395.367,90.598,395.325,90.58,395.281z"/>
		<path style="fill:#FFFFFF;" d="M82.398,390.789c-0.021,0.007-0.043,0.013-0.064,0.02c-0.08-0.006-0.159-0.002-0.237,0.027
			c-0.069,0.025-0.137,0.051-0.206,0.076c-0.179,0.066-0.345,0.143-0.511,0.236c-0.063,0.035-0.129,0.068-0.189,0.106
			c-0.105,0.066-0.201,0.154-0.298,0.231c-0.156,0.123-0.325,0.234-0.437,0.4c-0.038,0.056-0.072,0.116-0.107,0.174
			c-0.102,0.165-0.154,0.342-0.107,0.536c0.059,0.242,0.306,0.414,0.55,0.414c0.114,0,0.223-0.041,0.329-0.076
			c0.032-0.011,0.064-0.02,0.096-0.031c0.11-0.039,0.19-0.081,0.28-0.15c0.081-0.063,0.162-0.126,0.242-0.19
			c0.119-0.094,0.244-0.182,0.347-0.294c0.142-0.153,0.284-0.302,0.4-0.476c0.044-0.066,0.088-0.132,0.133-0.198
			c0.056-0.084,0.09-0.172,0.109-0.265c0.012-0.021,0.025-0.042,0.037-0.063C82.908,391.029,82.67,390.704,82.398,390.789z"/>
		<path style="fill:#FFFFFF;" d="M83.096,383.378c-0.007-0.042-0.008-0.052-0.003-0.032c-0.002,0.022,0.006-0.036,0.006-0.035
			c0.013-0.135-0.137-0.219-0.252-0.192c-0.015,0.004-0.031,0.009-0.046,0.011c0.016-0.002-0.006-0.005-0.013-0.005
			c-0.058,0.003-0.107,0.02-0.161,0.04c-0.059,0.022-0.118,0.043-0.177,0.065c-0.206,0.079-0.408,0.209-0.579,0.346
			c-0.122,0.097-0.243,0.195-0.364,0.293c-0.164,0.132-0.284,0.308-0.403,0.479c-0.093,0.133-0.118,0.375-0.069,0.526
			c0.047,0.144,0.124,0.262,0.245,0.355c0.274,0.212,0.644,0.179,0.897-0.053c0.15-0.138,0.292-0.29,0.397-0.466
			c0.081-0.134,0.165-0.268,0.243-0.404c0.036-0.064,0.062-0.136,0.09-0.204c0.042-0.1,0.097-0.201,0.124-0.306
			c0.017-0.066,0.029-0.133,0.044-0.199c0.012-0.055,0.028-0.112,0.027-0.168C83.102,383.411,83.1,383.394,83.096,383.378z"/>
		<g>
			<path style="fill:#FFFFFF;" d="M57.292,406.232c0.179-0.128,0.363-0.25,0.56-0.35c0.964-0.495,1.883-0.483,2.829,0.043
				c1.048,0.582,1.973,1.348,3.248,1.175c2.566-0.349,3.697-3.634,6.587-2.686c2.183,0.716,4.269,2.776,6.672,1.537
				c1.426-0.736,2.249-1.991,4.033-1.458c1.348,0.403,2.488,1.307,3.813,1.776c1.683,0.596,3.217,0.078,4.863-0.367
				c0.052-0.014,0.108-0.026,0.162-0.039l0.074-1.239c-0.419,0.089-0.84,0.202-1.263,0.323c-1.008,0.288-2.056,0.592-3.107,0.352
				c-0.842-0.192-1.617-0.606-2.38-0.998c-1.17-0.603-2.434-1.242-3.789-0.973c-1.533,0.305-2.469,1.999-4.083,1.966
				c-1.439-0.029-2.747-1.066-4.027-1.613c-1.137-0.486-2.329-0.708-3.504-0.22c-1.301,0.54-2.156,1.731-3.382,2.38
				c-1.874,0.991-3.171-1.08-4.96-1.276c-0.765-0.084-1.637,0.153-2.409,0.577L57.292,406.232z"/>
			<path style="fill:#FFFFFF;" d="M89.918,408.204c-0.75,0.002-1.481,0.102-2.048,0.253c-0.899,0.239-1.81,0.561-2.752,0.551
				c-0.884-0.009-1.647-0.415-2.419-0.799c-1.16-0.576-2.383-1.101-3.673-0.615c-1.41,0.531-2.301,2.199-3.978,1.816
				c-1.374-0.314-2.473-1.35-3.88-1.602c-2.725-0.488-4.241,2.136-6.625,2.757c-1.702,0.443-3.156-1.158-4.889-1.111
				c-0.749,0.02-1.498,0.228-2.134,0.608l0.06,1.001c0.939-0.555,2.003-0.839,3.116-0.492c1.243,0.387,2.194,1.25,3.571,1.114
				c2.253-0.222,3.676-2.498,5.884-2.748c2.4-0.271,4.167,2.571,6.68,1.516c1.201-0.504,2.091-1.937,3.502-1.797
				c1.283,0.127,2.361,1.109,3.588,1.463c1.651,0.477,3.255-0.134,4.865-0.476c0.342-0.073,0.7-0.118,1.053-0.124L89.918,408.204z"
				/>
		</g>
	</g>
</g>
<g id="TEXT">
	<text transform="matrix(1 0 0 1 319.5902 349.0992)" style="fill:#2E344B; font-family:'Quicksand-Bold'; font-size:14.9916px;">NO DATA</text>
</g>
</svg>
