<?xml version="1.0" encoding="UTF-8"?>
<svg version="1.1" xmlns="http://www.w3.org/2000/svg" width="4000" height="3582">
<path d="M0 0 C1.46067902 0.00090637 1.46067902 0.00090637 2.9508667 0.00183105 C19.70796943 0.02982499 36.31012342 0.5765165 53 2.1875 C53.6639679 2.25066406 54.32793579 2.31382812 55.01202393 2.37890625 C101.33547425 6.81096669 146.70006488 15.85516805 191 30.1875 C192.18819336 30.56986816 193.37638672 30.95223633 194.60058594 31.34619141 C239.5785035 45.96371046 282.70676873 66.37061108 323.28564453 90.56933594 C325.69457104 92.00541841 328.11011155 93.42953359 330.52734375 94.8515625 C362.44551723 113.81477732 392.58534555 136.20179437 421.23974609 159.74755859 C422.814459 161.0357218 424.40063669 162.30984025 425.98828125 163.58203125 C432.24688371 168.6088393 438.14749976 173.94014968 444.01171875 179.4140625 C446.3035841 181.55104314 448.62758757 183.63973348 451 185.6875 C456.16550282 190.16570099 461.16340639 194.82576257 466.16650391 199.48339844 C467.38014946 200.6113939 468.59594306 201.73708302 469.81396484 202.86035156 C479.80840381 212.07829343 489.50242482 221.58450987 499.125 231.1875 C499.71194641 231.77185822 500.29889282 232.35621643 500.90362549 232.95828247 C506.57266284 238.60757157 512.19693981 244.23920616 517.39404297 250.33203125 C520.47637613 253.89325533 523.75521237 257.27487853 527 260.6875 C532.12996199 266.08280485 537.12744317 271.5587248 542 277.1875 C542.78246094 278.06535156 543.56492187 278.94320313 544.37109375 279.84765625 C561.90381816 300.23069124 567.36696224 325.23416174 565.79525924 351.62540329 C565.49802925 355.33119644 565.16575476 359.03211042 564.81930542 362.73362732 C564.69014274 364.15975147 564.56149909 365.58592271 564.43332225 367.0121358 C564.08197714 370.90513352 563.72340904 374.79743624 563.36361681 378.68966109 C562.97392712 382.91977556 562.5911394 387.15051542 562.20751667 391.38118362 C561.53802104 398.7545777 560.86434473 406.12758013 560.18791771 413.50034142 C559.19290673 424.34648499 558.20507253 435.19327354 557.21909388 446.04024152 C555.68190245 462.95060461 554.14121845 479.8606469 552.59787539 496.7704496 C548.5471107 541.15435625 544.52166656 585.54056142 540.50126371 629.92722744 C540.19859741 633.26857812 539.89587304 636.60992353 539.59313512 639.95126772 C532.46760575 718.59989748 525.4674294 797.25831028 518.6875 875.9375 C518.52275366 877.84889212 518.52275366 877.84889212 518.35467911 879.79889822 C515.39438645 914.14877898 512.45788932 948.50066332 509.53839874 982.85403442 C509.00942824 989.07779074 508.47961026 995.30147472 507.949646 1001.52514648 C500.98006453 1083.38364228 494.1624915 1165.25477124 483 1306.1875 C482.93563405 1307.01042699 482.8712681 1307.83335398 482.80495167 1308.68121815 C476.21481367 1392.95586866 469.83821629 1477.24553255 463.8125 1561.5625 C463.75077685 1562.4257788 463.6890537 1563.2890576 463.62546015 1564.17849636 C460.76042327 1604.25359492 457.96910201 1644.33296679 455.30867124 1684.4221921 C455.07618203 1687.92306683 454.84303788 1691.4238978 454.60986549 1694.92472708 C454.3244978 1699.20972702 454.03950149 1703.49475162 453.75463867 1707.77978516 C453.69903869 1708.61605304 453.6434387 1709.45232093 453.58615386 1710.31393027 C452.93482394 1720.11653729 452.2910987 1729.91958664 451.6596489 1739.72349489 C451.27049157 1745.76100449 450.87495679 1751.79807429 450.47461987 1757.83485281 C450.24589097 1761.28903805 450.02046158 1764.74335598 449.8040657 1768.19833755 C448.11334242 1795.02234447 445.98816875 1821.70900655 425 1841.1875 C410.88489788 1851.89039275 396.03557273 1854.98524081 378.67578125 1852.76171875 C359.16938547 1848.51666867 345.45832506 1833.96529853 332.03613281 1820.23876953 C328.1045448 1816.22483964 324.08503512 1812.41595274 319.80615234 1808.77270508 C317.95517118 1807.1481551 316.22352791 1805.44593807 314.5 1803.6875 C310.35727624 1799.48916921 305.92151134 1795.68316702 301.43896484 1791.85400391 C299.66730033 1790.34057 297.89606512 1788.82663529 296.125 1787.3125 C295.51672363 1786.79300781 294.90844727 1786.27351563 294.28173828 1785.73828125 C290.74413682 1782.70902659 287.25629109 1779.63621166 283.8125 1776.5 C279.62630699 1772.70242751 275.29980986 1769.11684056 270.90625 1765.5625 C268.34642926 1763.47060348 265.82290359 1761.34569981 263.30981445 1759.19848633 C256.03387063 1752.98245426 248.56655414 1747.04470276 241 1741.1875 C239.48019531 1740.00607422 239.48019531 1740.00607422 237.9296875 1738.80078125 C216.10453615 1721.91559383 193.87767718 1705.61762289 171 1690.1875 C169.88455122 1689.43301906 168.76915682 1688.67845771 167.65380859 1687.92382812 C150.36308795 1676.23504073 132.91492862 1664.90531454 115 1654.1875 C114.43128174 1653.84716736 113.86256348 1653.50683472 113.27661133 1653.15618896 C45.2361074 1612.4800065 -26.15720993 1578.24237851 -149 1534.1875 C-149.71937744 1533.95780518 -150.43875488 1533.72811035 -151.17993164 1533.49145508 C-234.408477 1506.97012708 -319.48407656 1489.30116346 -476 1472.1875 C-477.06000214 1472.1127243 -477.06000214 1472.1127243 -478.14141846 1472.03643799 C-511.74413153 1469.67630374 -545.33251715 1468.98081994 -579.0089798 1468.99861908 C-581.66880867 1469.00002313 -584.32863516 1468.99991478 -586.98846436 1468.99981689 C-621.75320438 1469.00932368 -656.32151173 1470.21977616 -691.00610352 1472.56665039 C-716.69203005 1474.26698887 -740.62784663 1472.83763569 -761 1455.1875 C-778.81083268 1439.33706129 -791.67310719 1420.12302156 -793.42163086 1395.72998047 C-794.06424106 1377.85742103 -790.33829427 1360.48369372 -787.06537628 1343.00939941 C-786.38090418 1339.33861106 -785.7106202 1335.66528392 -785.04006577 1331.99193192 C-782.73736651 1319.38214837 -780.37618496 1306.78361313 -778 1294.1875 C-777.73602291 1292.78633186 -777.73602291 1292.78633186 -777.46671295 1291.3568573 C-761.43219141 1206.25031852 -744.31675096 1121.34035503 -693.55795288 896.52030945 C-692.98190471 894.1118433 -692.40651608 891.70322039 -691.83129883 889.29455566 C-671.29537367 803.30937189 -649.92136432 717.56948301 -627 632.1875 C-626.76893555 631.32635086 -626.53787109 630.46520172 -626.29980469 629.57795715 C-612.1291086 576.76671182 -597.53292525 524.07810869 -582.64441681 471.46491241 C-582.02051895 469.26001534 -581.3969136 467.05503573 -580.77337646 464.85003662 C-562.77578871 401.21707787 -544.14888766 337.76595017 -524.91598511 274.49558926 C-523.31866641 269.23962867 -521.72590007 263.98229732 -520.13427734 258.72460938 C-517.89109724 251.31508167 -515.64352276 243.90690159 -513.39114952 236.50016308 C-512.18067976 232.51956563 -510.97161643 228.53855746 -509.76660156 224.55630493 C-508.6384167 220.82862134 -507.50500234 217.10256466 -506.36786842 213.37760162 C-505.95362872 212.0177422 -505.54109619 210.65736115 -505.13055992 209.29637909 C-502.93245428 202.01371549 -500.5724258 194.81511607 -497.9230957 187.68530273 C-497.56533318 186.71672002 -497.56533318 186.71672002 -497.20034313 185.72856998 C-493.22897111 175.23555704 -487.75339876 166.54700828 -480.1875 158.3125 C-479.64351562 157.71816162 -479.09953125 157.12382324 -478.5390625 156.51147461 C-470.56697792 148.20760518 -460.80473426 142.23866495 -450.875 136.5625 C-449.83786865 135.96477783 -448.8007373 135.36705566 -447.73217773 134.7512207 C-444.49238768 132.88907901 -441.24661516 131.03771095 -438 129.1875 C-437.00661621 128.61725098 -436.01323242 128.04700195 -434.98974609 127.45947266 C-360.37263971 84.66745854 -279.8711469 49.0874986 -188 25.1875 C-186.87673309 24.9022345 -186.87673309 24.9022345 -185.73077393 24.61120605 C-144.33542781 14.10691782 -102.23445957 6.35191318 -59.6875 2.4375 C-58.43283936 2.32180664 -57.17817871 2.20611328 -55.88549805 2.08691406 C-37.28636708 0.49287588 -18.66148419 -0.02176925 0 0 Z " fill="#80CAFF" transform="translate(1334,354.8125)"/>
<path d="M0 0 C1.02223663 -0.00088371 1.02223663 -0.00088371 2.06512451 -0.00178528 C28.85668726 -0.01803232 55.4828152 1.01687254 82.1875 3.25 C83.04422302 3.32025391 83.90094604 3.39050781 84.78363037 3.46289062 C139.25523094 7.95485277 192.90107218 18.31881265 246.06079102 30.75378418 C248.00384224 31.20714793 249.94814819 31.65512543 251.89257812 32.10253906 C392.55108971 64.64050975 392.55108971 64.64050975 417.75 103.8125 C445.79761899 153.49514132 438.19407169 235.18174842 440.06616211 290.66807556 C440.19258875 294.40022112 440.32068869 298.13230619 440.44921875 301.86437988 C441.10982397 321.05481182 441.75224706 340.24580161 442.375 359.4375 C442.39652114 360.10048174 442.41804229 360.76346349 442.44021559 361.44653559 C443.55620941 395.86254078 444.55431444 430.27703886 445.12817383 464.70669174 C445.19142846 468.48463063 445.25676244 472.26253103 445.32202148 476.04043579 C446.1833856 526.41360635 446.39044633 576.78152678 446.37572432 627.16137981 C446.37499212 630.15726161 446.37474768 633.15314309 446.3746376 636.14902496 C446.37085322 703.86799455 445.95629562 771.55047987 444.1875 839.25 C444.14601082 840.84400257 444.14601082 840.84400257 444.10368347 842.47020721 C443.30899147 872.8805882 442.36010503 903.28476132 441.27848816 933.68624115 C441.19102751 936.15060585 441.10444632 938.61499968 441.01818848 941.07940674 C437.31367399 1046.72943114 431.64858378 1152.38584044 408.88507462 1443.1892004 C408.47125099 1447.94926757 408.06418705 1452.70980275 407.66546631 1457.47116089 C407.57774397 1458.50741073 407.49002163 1459.54366056 407.39964104 1460.61131191 C407.23152083 1462.5977395 407.06539464 1464.58433726 406.90164375 1466.5711298 C405.3491392 1484.80176828 399.63317333 1500.44226008 386.1875 1513.25 C385.34445312 1514.10464844 385.34445312 1514.10464844 384.484375 1514.9765625 C373.27411905 1525.58821255 359.27594081 1527.45931831 344.54296875 1527.9609375 C343.19720534 1528.01321966 341.85147716 1528.06641565 340.50578308 1528.12045288 C337.6323809 1528.23497559 334.75886558 1528.34548614 331.88519287 1528.45300293 C324.15795146 1528.74447194 316.43247732 1529.07881265 308.70703125 1529.4140625 C307.52854362 1529.46506104 307.52854362 1529.46506104 306.32624817 1529.51708984 C239.47143807 1532.42536775 172.52118786 1538.38670222 106.1875 1547.25 C104.75114197 1547.44178833 104.75114197 1547.44178833 103.2857666 1547.63745117 C-3.48755218 1561.97753541 -109.80759418 1584.27102225 -290.0625 1644.0625 C-290.84987549 1644.36158264 -291.63725098 1644.66066528 -292.44848633 1644.96881104 C-306.99884699 1650.5004706 -321.465613 1656.20748312 -335.8125 1662.25 C-336.47880432 1662.53018982 -337.14510864 1662.81037964 -337.831604 1663.09906006 C-362.48343816 1673.47500006 -386.75880015 1684.55591134 -410.8125 1696.25 C-411.54505005 1696.60596252 -412.2776001 1696.96192505 -413.03234863 1697.32867432 C-430.08252098 1705.62539722 -446.82535754 1714.29009039 -463.24658203 1723.78564453 C-466.5008486 1725.64283681 -469.79355134 1727.42267369 -473.09179688 1729.20019531 C-485.91698302 1736.12246732 -498.32751222 1743.71784986 -510.734375 1751.35546875 C-513.25754445 1752.90843472 -515.7841822 1754.45544495 -518.3125 1756 C-535.5492954 1766.58996937 -552.32587333 1777.97986039 -568.75732422 1789.77587891 C-570.9082897 1791.31870732 -573.06534072 1792.85278489 -575.22265625 1794.38671875 C-590.96569381 1805.62177054 -606.11763514 1817.56774948 -621.07275391 1829.82617188 C-622.63198327 1831.10226304 -624.196511 1832.37187381 -625.76171875 1833.640625 C-632.00609736 1838.70905494 -638.12859491 1843.90854264 -644.21875 1849.16015625 C-646.54034405 1851.16146559 -648.87284887 1853.1483426 -651.21875 1855.12109375 C-662.73732741 1864.8354968 -673.82038641 1875.05704437 -684.3125 1885.875 C-693.04514377 1894.66664812 -703.4081698 1900.60306946 -715.96875 1901.2734375 C-730.1209802 1901.15679824 -741.40731686 1895.35498153 -751.53515625 1885.62109375 C-765.58075281 1870.99729081 -772.04015639 1853.72015053 -771.95014954 1833.57472229 C-771.94751077 1832.65407598 -771.944872 1831.73342967 -771.94215328 1830.78488499 C-771.87076974 1821.18016553 -771.28548009 1811.63244165 -770.61010742 1802.05444336 C-770.47931785 1800.12364795 -770.34915021 1798.19281034 -770.2195425 1796.26193523 C-769.86765194 1791.04620227 -769.50700955 1785.83110846 -769.14468622 1780.61609125 C-768.75811572 1775.02984056 -768.37977175 1769.44303171 -768.00033569 1763.85629272 C-767.26504721 1753.04992417 -766.52203741 1742.24410048 -765.77601767 1731.43846798 C-765.16864786 1722.63935516 -764.56408506 1713.84005348 -763.96139526 1705.0406189 C-763.8752921 1703.78358884 -763.78918894 1702.52655878 -763.70047659 1701.23143691 C-763.52616702 1698.68663107 -763.35185902 1696.14182513 -763.17755258 1693.59701908 C-761.53719798 1669.65478469 -759.88661581 1645.7132644 -758.23081493 1621.77209377 C-757.3033254 1608.36066175 -756.37840017 1594.94905927 -755.45795691 1581.5371418 C-750.05921213 1502.87586818 -744.29080722 1424.24508309 -738.30523062 1345.62628508 C-738.07025135 1342.53933053 -737.83544672 1339.45236275 -737.60069656 1336.36539078 C-730.11526626 1237.9491598 -722.40006834 1139.54935277 -699.69643974 856.65657663 C-699.18143154 850.30023542 -698.66652243 843.94388618 -698.15162659 837.58753586 C-696.39647378 815.92058129 -694.64100287 794.25365249 -692.88525391 772.58674622 C-692.79848855 771.51601066 -692.71172319 770.4452751 -692.62232858 769.34209301 C-691.57893693 756.46631064 -690.53514003 743.5905612 -689.49083164 730.71485315 C-685.69114951 683.86689449 -681.90450143 637.01795144 -678.15261686 590.16613936 C-678.08706375 589.3475528 -678.02151064 588.52896624 -677.95397107 587.68557402 C-677.82260484 586.04514275 -677.69124294 584.40471113 -677.55988546 582.76427916 C-676.61542496 570.97043126 -675.66814505 559.1768131 -674.71798706 547.38342285 C-674.65766229 546.63464193 -674.59733752 545.885861 -674.53518473 545.11438975 C-673.9424132 537.75725368 -673.34921702 530.40015196 -672.75542783 523.04309796 C-672.46942712 519.49934252 -672.18355391 515.95557681 -671.89776611 512.4118042 C-671.81401339 511.37330168 -671.81401339 511.37330168 -671.72856869 510.31381932 C-670.84455923 499.34873046 -669.9704138 488.38287754 -669.10036953 477.41667267 C-668.24805821 466.67625647 -667.38533364 455.93672003 -666.51201665 445.19799119 C-666.05077307 439.52230619 -665.5941522 433.84635672 -665.15073776 428.16924858 C-664.75134828 423.05629135 -664.33855278 417.94460212 -663.91495633 412.83359504 C-663.76593874 411.00692614 -663.62181326 409.17984961 -663.48327327 407.3523562 C-662.37326352 392.76509499 -659.02168893 380.32899978 -653 366.9375 C-652.10801589 364.92450443 -651.21608898 362.91148352 -650.32421875 360.8984375 C-649.89286621 359.93131836 -649.46151367 358.96419922 -649.01708984 357.96777344 C-647.97822559 355.62390702 -646.95968458 353.27357648 -645.95703125 350.9140625 C-630.43440124 314.44315252 -608.8799987 282.05398671 -582.8125 252.25 C-582.18214844 251.52039063 -581.55179688 250.79078125 -580.90234375 250.0390625 C-576.27936261 244.71052387 -571.54623788 239.48001685 -566.8125 234.25 C-566.01328125 233.35667969 -565.2140625 232.46335937 -564.390625 231.54296875 C-558.79480085 225.34516958 -553.01906337 219.35272352 -547.125 213.4375 C-546.42439453 212.73230225 -545.72378906 212.02710449 -545.00195312 211.30053711 C-541.0355375 207.34578193 -536.96731747 203.57567091 -532.72583008 199.91821289 C-529.74214044 197.31676447 -526.879178 194.59080564 -524 191.875 C-518.98130627 187.17946446 -513.85689064 182.69878513 -508.48828125 178.40234375 C-505.73987908 176.19158522 -503.0601202 173.91204644 -500.375 171.625 C-481.57817694 155.94071685 -461.35719785 141.55562317 -440.8125 128.25 C-440.12704102 127.80366211 -439.44158203 127.35732422 -438.73535156 126.89746094 C-424.73859881 117.81251406 -410.32569328 109.47791497 -395.8125 101.25 C-394.96236328 100.76756836 -394.11222656 100.28513672 -393.23632812 99.78808594 C-388.12089596 96.89388431 -382.97894978 94.05204592 -377.8125 91.25 C-376.65016846 90.61747314 -376.65016846 90.61747314 -375.46435547 89.97216797 C-302.11573662 50.24840184 -220.33275869 24.4174961 -73.5 2.9375 C-72.56620514 2.85600708 -71.63241028 2.77451416 -70.6703186 2.69055176 C-47.11738131 0.66912705 -23.63662986 0.00942563 0 0 Z " fill="#80CAFF" transform="translate(2624.8125,314.75)"/>
<path d="M0 0 C12.70268895 8.78941086 25.00046184 17.91181148 36.88671875 27.78076172 C38.39573139 29.02390477 39.92480474 30.24261546 41.45703125 31.45703125 C72.62422265 56.1936425 72.62422265 56.1936425 76.61328125 68.203125 C76.86116028 71.34689331 76.86116028 71.34689331 76.85473633 74.93701172 C76.85557158 75.59668568 76.85640682 76.25635963 76.85726738 76.93602371 C76.85608012 79.12680875 76.83894276 81.31711068 76.8203125 83.5078125 C76.81328129 85.07323158 76.80635092 86.63865111 76.79951477 88.20407104 C76.69131163 105.69744196 76.07120922 123.17498676 75.40251541 140.65433121 C75.29864817 143.38418689 75.19706521 146.11411897 75.09616089 148.84408569 C73.82146486 183.30755553 72.37951732 217.76100168 70.61328125 252.203125 C70.56147453 253.21590893 70.56147453 253.21590893 70.50862122 254.24915314 C66.22476144 337.90195435 60.23748601 421.45832372 18.93958282 805.71740723 C18.62327802 808.12697109 18.30762134 810.53661903 17.99212646 812.94628906 C6.67852562 899.29603789 -7.07919181 985.30488271 -21.38671875 1071.203125 C-21.51428558 1071.96974709 -21.64185242 1072.73636917 -21.77328491 1073.52622223 C-36.27287173 1160.65716587 -52.72237004 1247.5314451 -71.22728729 1338.19515228 C-71.62934469 1340.16696045 -72.02823362 1342.13941382 -72.42706299 1344.11187744 C-81.50649787 1388.90467633 -81.50649787 1388.90467633 -95.38671875 1400.203125 C-107.56398052 1407.84982658 -121.4986902 1405.29036523 -135.13490295 1403.78268814 C-137.55441222 1403.51526468 -139.97473112 1403.25656328 -142.39538574 1402.99972534 C-147.55999676 1402.45013917 -152.72338341 1401.8895492 -157.88671875 1401.328125 C-164.64638426 1400.59446318 -171.40660887 1399.86632695 -178.16796875 1399.1484375 C-178.98759094 1399.06123695 -179.80721313 1398.97403641 -180.65167236 1398.88419342 C-195.87603488 1397.27383735 -211.10241614 1396.09027092 -226.38671875 1395.203125 C-226.12241562 1395.91647507 -225.85811249 1396.62982513 -225.58580017 1397.36479187 C-207.86543152 1445.25662576 -197.90497301 1494.32860772 -194.38671875 1545.203125 C-194.31614258 1546.20134277 -194.24556641 1547.19956055 -194.17285156 1548.22802734 C-188.42461043 1634.4364374 -202.24124184 1721.73277237 -252.07421875 1886.890625 C-262.69693139 1898.17978159 -276.53474862 1905.78963095 -292.1484375 1906.5390625 C-310.27578797 1906.86865069 -324.57044355 1903.18829577 -338.03515625 1890.515625 C-338.81117188 1889.7525 -339.5871875 1888.989375 -340.38671875 1888.203125 C-341.03898437 1887.56375 -341.69125 1886.924375 -342.36328125 1886.265625 C-351.04029332 1877.09169154 -354.95399607 1864.53765765 -359.39083862 1852.94610596 C-374.07864888 1814.69969156 -391.72668698 1777.58937021 -412.38671875 1742.203125 C-413.26765575 1740.67359653 -414.14789608 1739.14366654 -415.02734375 1737.61328125 C-420.81751824 1727.59130608 -427.01413311 1717.86306343 -433.38671875 1708.203125 C-433.80421387 1707.56665039 -434.22170898 1706.93017578 -434.65185547 1706.27441406 C-448.27038376 1685.51979855 -463.0848954 1665.73757201 -478.38671875 1646.203125 C-479.13050781 1645.25179687 -479.87429688 1644.30046875 -480.640625 1643.3203125 C-484.92199627 1637.90379686 -489.39029406 1632.66072456 -493.90380859 1627.43774414 C-496.88963968 1623.97674551 -499.79203848 1620.46959177 -502.63671875 1616.890625 C-508.47101177 1609.70833648 -514.92553584 1603.09897575 -521.30371094 1596.40380859 C-523.32915273 1594.2639431 -525.33416533 1592.10701279 -527.33203125 1589.94140625 C-533.78740248 1582.95302272 -540.32416462 1576.25350889 -547.421875 1569.91796875 C-550.73161252 1566.93555576 -553.83126085 1563.75841456 -556.94921875 1560.578125 C-561.56195176 1555.89462577 -566.3438424 1551.66645497 -571.50390625 1547.58203125 C-574.95385861 1544.73511934 -578.19624785 1541.70831115 -581.44921875 1538.640625 C-586.13828246 1534.22991909 -590.89836609 1530.03820499 -595.98046875 1526.078125 C-598.54761143 1524.07775408 -601.06200771 1522.02200468 -603.57421875 1519.953125 C-605.51079086 1518.36865691 -607.44836029 1516.78540726 -609.38671875 1515.203125 C-610.20003662 1514.53821045 -610.20003662 1514.53821045 -611.02978516 1513.85986328 C-620.84055928 1505.85919508 -630.92743938 1498.28780002 -641.15869141 1490.83447266 C-643.14458059 1489.38041704 -645.11828018 1487.91217082 -647.0859375 1486.43359375 C-655.75393886 1479.94316641 -664.70034308 1473.91316396 -673.73706055 1467.94775391 C-678.39692658 1464.8715097 -683.02774947 1461.7723465 -687.5859375 1458.546875 C-691.91691164 1455.49579041 -696.34616072 1452.6797402 -700.88671875 1449.953125 C-702.47144526 1448.99364003 -704.05607819 1448.03400047 -705.640625 1447.07421875 C-706.43484863 1446.59452637 -707.22907227 1446.11483398 -708.04736328 1445.62060547 C-710.93971363 1443.86805004 -713.8195497 1442.09573196 -716.69775391 1440.32006836 C-718.12705496 1439.44328816 -719.5604163 1438.57309601 -720.99755859 1437.70922852 C-725.13191148 1435.22304774 -729.20895783 1432.67693268 -733.23396301 1430.01625061 C-735.56153432 1428.4886322 -737.91165911 1426.997954 -740.26541138 1425.51107788 C-741.96130308 1424.42297233 -743.62863757 1423.29075466 -745.29467773 1422.1574707 C-753.64338879 1416.93616164 -759.68204968 1416.75230439 -769.04736328 1418.72677612 C-771.56089683 1419.23859183 -774.07829494 1419.65863899 -776.61132812 1420.06274414 C-782.6920306 1421.0341942 -788.75801588 1422.08281153 -794.82421875 1423.140625 C-796.49221527 1423.43016556 -796.49221527 1423.43016556 -798.19390869 1423.72555542 C-825.66399975 1428.50438836 -853.04258521 1433.75285704 -880.38671875 1439.203125 C-881.29258728 1439.38361389 -882.19845581 1439.56410278 -883.1317749 1439.75006104 C-968.76665739 1456.86147984 -1053.98607325 1478.6855493 -1137.16796875 1505.30859375 C-1137.91804703 1505.54766953 -1138.66812531 1505.7867453 -1139.44093323 1506.0330658 C-1142.86590415 1507.12582954 -1146.28622908 1508.22973044 -1149.69897461 1509.36010742 C-1163.78111437 1513.9015178 -1163.78111437 1513.9015178 -1169.41015625 1511.25 C-1173.14045022 1507.67064278 -1175.15428365 1505.31936547 -1175.72265625 1500.14453125 C-1175.73554688 1499.02949219 -1175.7484375 1497.91445312 -1175.76171875 1496.765625 C-1175.79007813 1495.65316406 -1175.8184375 1494.54070312 -1175.84765625 1493.39453125 C-1175.27121604 1489.40341556 -1174.16421629 1488.11035999 -1171.38671875 1485.203125 C-1168.93547198 1483.75169397 -1166.60593698 1482.50382458 -1164.0390625 1481.30859375 C-1162.97449074 1480.79560982 -1162.97449074 1480.79560982 -1161.88841248 1480.27226257 C-1159.72726164 1479.23577187 -1157.55828593 1478.21757928 -1155.38671875 1477.203125 C-1153.60031982 1476.35741943 -1153.60031982 1476.35741943 -1151.77783203 1475.49462891 C-1148.17968069 1473.8093801 -1144.56839961 1472.15503604 -1140.94921875 1470.515625 C-1139.94065323 1470.0576503 -1139.94065323 1470.0576503 -1138.91171265 1469.59042358 C-1107.42984494 1455.31988 -1075.59703301 1441.74487533 -1043.38671875 1429.203125 C-1042.13169123 1428.71130661 -1040.87681207 1428.21910948 -1039.62207031 1427.7265625 C-1030.56163216 1424.17114365 -1021.48259321 1420.66686064 -1012.38671875 1417.203125 C-1011.27184082 1416.77773437 -1010.15696289 1416.35234375 -1009.00830078 1415.9140625 C-969.06963929 1400.76060167 -928.38304831 1387.19755 -887.38671875 1375.203125 C-886.59392517 1374.97016724 -885.80113159 1374.73720947 -884.98431396 1374.49719238 C-813.88891995 1353.63047781 -741.62330087 1338.3221558 -668.38671875 1327.203125 C-667.52995544 1327.07204346 -666.67319214 1326.94096191 -665.79046631 1326.8059082 C-621.26603368 1320.00787441 -576.14688337 1315.70300876 -531.17529297 1313.35028076 C-528.38474374 1313.20302078 -525.59474915 1313.0473106 -522.8046875 1312.89111328 C-486.50301535 1310.91322761 -450.16784148 1311.0191161 -413.82421875 1311.015625 C-412.60453148 1311.01510258 -411.38484421 1311.01458015 -410.12819672 1311.0140419 C-383.5352666 1311.00356815 -356.95889671 1311.1430702 -330.37298584 1311.77243423 C-307.35794681 1312.31151601 -284.34657789 1312.39061296 -261.32592773 1312.38842773 C-256.62764711 1312.38834564 -251.92946229 1312.39544942 -247.23120117 1312.40893555 C-193.01274549 1316.62688059 -193.01274549 1316.62688059 -144.546875 1301.44921875 C-138.37591127 1293.98069296 -137.02824128 1284.35996887 -135.75195312 1275.02783203 C-135.54337425 1273.57214892 -135.54337425 1273.57214892 -135.33058167 1272.08705807 C-134.87301113 1268.87936884 -134.42661332 1265.67023425 -133.98046875 1262.4609375 C-133.65662944 1260.17150256 -133.33219341 1257.88215195 -133.00720215 1255.59288025 C-132.13731182 1249.44853055 -131.27783546 1243.30276785 -130.42108154 1237.15657425 C-129.8852287 1233.3174495 -129.34663662 1229.47871893 -128.80712891 1225.6401062 C-122.58110919 1181.3334015 -116.56845694 1137.00174299 -110.94616699 1092.61431885 C-110.42087374 1088.46820075 -109.89085928 1084.32270018 -109.36035156 1080.17724609 C-98.74486668 996.98459654 -89.82131294 913.46475125 -82.62000275 829.90736389 C-82.37169436 827.02896153 -82.12240294 824.15064536 -81.87298584 821.27233887 C-74.0144956 730.51926648 -67.42178804 639.781978 -57.38671875 427.203125 C-57.36306999 426.46481949 -57.33942123 425.72651398 -57.31505585 424.96583557 C-56.67950358 405.07801629 -56.10643652 385.18877528 -55.57763672 365.29785156 C-55.42211299 359.46122844 -55.25348037 353.62511662 -55.078125 347.7890625 C-52.55762253 262.21684 -52.67063831 176.48224294 -53.88671875 90.890625 C-53.93126287 87.71102155 -53.97551885 84.5314141 -54.01977539 81.35180664 C-54.03054391 80.57943885 -54.04131243 79.80707106 -54.05240726 79.01129818 C-54.58220896 40.96853221 -54.58220896 40.96853221 -54.66314125 25.26109791 C-54.68048442 21.90453281 -54.70617341 18.54865103 -54.74560547 15.19223022 C-54.78690804 11.57979217 -54.80312553 7.96811044 -54.8125 4.35546875 C-54.8299678 3.30337219 -54.84743561 2.25127563 -54.86543274 1.16729736 C-54.84756512 -4.83485213 -54.36487013 -8.21543246 -50.38671875 -12.796875 C-34.98054506 -27.39219744 -13.67412572 -9.35705252 0 0 Z " fill="#006EBE" transform="translate(3382.38671875,769.796875)"/>
<path d="M0 0 C9.40646798 4.77796038 18.46259658 10.15683483 27.49951172 15.59326172 C29.80376206 16.97324451 32.11902991 18.32951188 34.4453125 19.671875 C68.75057454 39.57197248 68.75057454 39.57197248 75.12890625 54.16796875 C76.15347869 58.32302358 76.35541604 62.43097114 76.48608398 66.68920898 C76.52537521 67.80980965 76.52537521 67.80980965 76.56546021 68.95304871 C76.65212074 71.46076098 76.73251011 73.96862912 76.8125 76.4765625 C76.8733366 78.30689663 76.93438258 80.13722381 76.99562073 81.96754456 C77.12529581 85.87435439 77.25179172 89.7812521 77.3762207 93.68823242 C77.49701504 97.47386831 77.62157801 101.25933464 77.7512207 105.04467773 C78.2773269 120.41730295 78.72120637 135.79178041 79.12890625 151.16796875 C79.15973565 152.32477001 79.15973565 152.32477001 79.19118786 153.50494099 C80.83845406 215.4284889 81.4536893 277.31870204 81.38604456 339.26307064 C81.37850241 346.96641384 81.38123564 354.66970555 81.38964844 362.37304688 C81.45351739 422.46028841 80.80243875 482.49337917 79.24773407 542.56097412 C79.14039912 546.70806708 79.03645248 550.85523348 78.93365479 555.00244141 C78.60857832 568.05926079 78.23826002 581.1139309 77.81640625 594.16796875 C77.78695042 595.09308384 77.75749458 596.01819893 77.72714615 596.97134781 C74.55091029 696.7113908 68.86066338 796.43915917 51.34754181 1020.63327789 C51.14182326 1023.01821897 50.93690512 1025.40322701 50.73236084 1027.78826904 C46.05208063 1082.33334316 40.09670627 1136.75136638 34.12890625 1191.16796875 C33.98433235 1192.48693649 33.98433235 1192.48693649 33.83683777 1193.83255005 C28.24326974 1244.83670818 21.95098696 1295.7523649 15.45050049 1346.64824677 C15.13555549 1349.11587129 14.82131928 1351.583585 14.50732422 1354.05133057 C13.39642703 1362.77864118 12.27524692 1371.50450171 11.13452148 1380.22796631 C10.80177966 1382.77972336 10.47178926 1385.33184095 10.14477539 1387.88433838 C9.7004238 1391.34339367 9.24455699 1394.80072827 8.78515625 1398.2578125 C8.66060059 1399.24413162 8.53604492 1400.23045074 8.40771484 1401.24665833 C6.89255987 1412.4106012 4.15184007 1420.42723031 -4.75390625 1427.70703125 C-15.40904004 1435.08366234 -30.50171488 1434.32974597 -42.95341492 1434.27476501 C-44.01361039 1434.27420831 -45.07380585 1434.2736516 -46.16612846 1434.27307802 C-49.69109854 1434.27006148 -53.21601055 1434.2598895 -56.7409668 1434.24975586 C-59.28223613 1434.24619572 -61.82350616 1434.24311083 -64.36477661 1434.24046326 C-69.83312031 1434.23392259 -75.30144667 1434.22444864 -80.76978111 1434.21256828 C-88.73685492 1434.19545083 -96.70392513 1434.18599475 -104.67101333 1434.17868955 C-117.68050089 1434.16674764 -130.6899827 1434.15181877 -143.69946289 1434.13354492 C-144.47704713 1434.1324548 -145.25463138 1434.13136468 -146.05577878 1434.13024152 C-156.99087542 1434.11476646 -167.92596446 1434.09619138 -178.86105374 1434.07624365 C-179.62499439 1434.07485033 -180.38893503 1434.07345702 -181.17602539 1434.07202148 C-181.93900067 1434.07062795 -182.70197596 1434.06923442 -183.4880717 1434.06779867 C-196.39794759 1434.04443092 -209.30781881 1434.02932627 -222.2177127 1434.0204621 C-229.42487102 1434.01523202 -236.63198131 1434.00629018 -243.83911705 1433.9870739 C-291.29586218 1433.86302227 -338.69935266 1434.74711023 -386.05859375 1437.98046875 C-387.31788696 1438.06411682 -388.57718018 1438.14776489 -389.87463379 1438.23394775 C-500.39857494 1445.60346644 -609.78862259 1462.06551962 -1024.06689453 1609.60546875 C-1027.06968046 1611.27862128 -1030.07779733 1612.94196398 -1033.0859375 1614.60546875 C-1046.17674413 1621.86669745 -1059.11379661 1629.33581888 -1071.87109375 1637.16796875 C-1072.76521973 1637.71469238 -1073.6593457 1638.26141602 -1074.58056641 1638.82470703 C-1097.45172633 1652.84148914 -1119.78734102 1667.71252051 -1141.671875 1683.22265625 C-1143.07026152 1684.20635336 -1144.4700267 1685.18809325 -1145.87109375 1686.16796875 C-1146.66467285 1686.72419922 -1147.45825195 1687.28042969 -1148.27587891 1687.85351562 C-1149.46576416 1688.67045898 -1149.46576416 1688.67045898 -1150.6796875 1689.50390625 C-1151.39310303 1689.99681152 -1152.10651855 1690.4897168 -1152.84155273 1690.99755859 C-1156.09242866 1692.87229685 -1158.24949414 1693.00372251 -1161.87109375 1692.16796875 C-1165.35341164 1689.13986623 -1167.03911184 1686.77096577 -1167.87109375 1682.23046875 C-1168.11820954 1678.02950032 -1167.23688529 1674.65157765 -1164.87109375 1671.16796875 C-1163.06299585 1669.15671378 -1161.18457864 1667.28917937 -1159.19921875 1665.453125 C-1157.33865609 1663.62690158 -1155.68977928 1661.80605253 -1154.0078125 1659.82421875 C-1148.77188845 1653.78099055 -1143.05243316 1648.20047019 -1137.39233398 1642.55883789 C-1135.43813751 1640.61000005 -1133.48934228 1638.65587603 -1131.54101562 1636.70117188 C-1125.48651755 1630.64343618 -1119.42121314 1624.69453641 -1112.87109375 1619.16796875 C-1111.26341002 1617.71351358 -1109.6586966 1616.2557598 -1108.05859375 1614.79296875 C-1102.8091052 1610.062836 -1097.38740769 1605.58247924 -1091.87109375 1601.16796875 C-1091.36126953 1600.75853027 -1090.85144531 1600.3490918 -1090.32617188 1599.92724609 C-1055.38617134 1571.92606451 -1017.7924154 1546.73254832 -978.35009766 1525.50683594 C-975.50961128 1523.97273831 -972.68113619 1522.4174115 -969.8515625 1520.86328125 C-925.47387404 1496.6296532 -879.28526774 1476.55643899 -831.92053223 1458.93121338 C-830.06146655 1458.23886671 -828.20398067 1457.54228167 -826.34667969 1456.84521484 C-789.57750416 1443.10302984 -751.95326765 1430.93260685 -714.04174805 1420.75152588 C-711.78276152 1420.14422158 -709.52511984 1419.53208534 -707.26757812 1418.91943359 C-694.83157319 1415.55278604 -682.36171999 1412.32552329 -669.87109375 1409.16796875 C-668.80614685 1408.89857483 -667.74119995 1408.62918091 -666.64398193 1408.35162354 C-566.12069412 1382.98294143 -463.68524999 1366.63906764 -267.87109375 1346.16796875 C-266.94850769 1346.09749329 -266.02592163 1346.02701782 -265.07537842 1345.95440674 C-237.69567257 1343.86541473 -210.30752389 1342.28527942 -182.87109375 1341.16796875 C-181.84961243 1341.12606415 -181.84961243 1341.12606415 -180.80749512 1341.08331299 C-167.93895976 1340.56017219 -155.0773343 1340.18780176 -142.19909668 1340.06248474 C-137.46421904 1340.0152074 -132.72953901 1339.9543985 -127.99481201 1339.89407349 C-125.63766207 1339.86852123 -123.280421 1339.85024574 -120.92315674 1339.83956909 C-117.59418521 1339.82446186 -114.26620839 1339.78544606 -110.9375 1339.7421875 C-109.93980087 1339.74414124 -108.94210175 1339.74609497 -107.91416931 1339.74810791 C-101.1483012 1339.6292885 -95.4855494 1338.51239058 -90.38380432 1333.79179382 C-84.61577801 1327.26810419 -83.27218736 1320.8682828 -82.40625 1312.5078125 C-82.28484146 1311.41750229 -82.16343292 1310.32719208 -82.03834534 1309.20384216 C-81.6348012 1305.52661507 -81.25126798 1301.84768199 -80.87109375 1298.16796875 C-80.73676941 1296.89109192 -80.60244507 1295.61421509 -80.46405029 1294.29864502 C-79.3593635 1283.78105423 -78.3255395 1273.25686227 -77.30859375 1262.73046875 C-77.18405634 1261.44505377 -77.18405634 1261.44505377 -77.05700302 1260.13367081 C-69.58797058 1182.96487782 -63.27990132 1105.61204745 -58.20513916 1028.2477417 C-57.96739151 1024.62542299 -57.7274491 1021.00325621 -57.48626709 1017.38116455 C-52.71239867 945.6792398 -48.82572432 873.96780055 -45.87109375 802.16796875 C-45.83122597 801.20286377 -45.79135818 800.23775879 -45.75028229 799.2434082 C-43.62987358 747.90117227 -42.06964021 696.5509879 -40.91646576 645.17821503 C-40.84798998 642.14433637 -40.77759756 639.11050216 -40.70751953 636.07666016 C-40.41098252 623.06714724 -40.17885028 610.0573883 -39.98876953 597.04589844 C-39.91786989 592.19450326 -39.84128878 587.34327329 -39.7583952 582.49206924 C-38.26650484 495.11762781 -38.49659334 407.64603393 -42.67254639 223.16308594 C-42.86642113 217.3328429 -43.05305148 211.50238259 -43.23876953 205.671875 C-44.99967506 150.65387109 -47.44872673 95.66276027 -50.43701172 40.69775391 C-50.53074124 38.96214431 -50.62444574 37.22653336 -50.71812439 35.49092102 C-50.89480368 32.21922377 -51.07544185 28.94777981 -51.25856018 25.67643738 C-52.65876579 0.21240705 -52.65876579 0.21240705 -48.87109375 -5.83203125 C-35.27366026 -20.55454789 -14.63312708 -7.23184795 0 0 Z " fill="#0094FF" transform="translate(3185.87109375,570.83203125)"/>
<path d="M0 0 C66.33 0 132.66 0 201 0 C201 28.05 201 56.1 201 85 C185.16 85 169.32 85 153 85 C165.81312703 132.21955989 178.6449006 179.43389771 191.5625 226.625 C191.83447708 227.61859779 192.10645416 228.61219559 192.38667297 229.6359024 C201.54825416 263.10244343 210.7460913 296.55886392 220 330 C221.42855995 327.31972744 222.41803214 324.81843689 223.14440918 321.87214661 C223.34828467 321.05517681 223.55216017 320.23820702 223.76221371 319.39648056 C223.9792574 318.50614246 224.1963011 317.61580437 224.41992188 316.69848633 C224.77259172 315.2764282 224.77259172 315.2764282 225.13238621 313.82564163 C225.91570128 310.66220482 226.69221624 307.49713891 227.46875 304.33203125 C228.02143386 302.09417218 228.57453785 299.85641684 229.1280365 297.61875916 C230.61514219 291.60173449 232.09641277 285.58328712 233.57661057 279.56455994 C235.1206524 273.29056838 236.6700908 267.01790996 238.21899414 260.74511719 C240.98465642 249.54144269 243.74594186 238.33669566 246.50493145 227.13137627 C248.83925387 217.65117712 251.17701261 208.17182983 253.51672935 198.69296074 C256.39504912 187.03198047 259.27070927 175.3703483 262.14339638 163.7079792 C265.42964435 150.36670788 268.72080094 137.02665596 272.015625 123.6875 C272.44626921 121.94390881 272.87691292 120.2003175 273.30755615 118.45672607 C275.23257053 110.66300534 277.15792827 102.86936972 279.08417892 95.07595444 C283.0762033 78.92361715 287.06201466 62.76986263 291.01286888 46.60739899 C291.55399364 44.39416651 292.09555342 42.18104098 292.63728333 39.96795654 C292.81102572 39.25813755 292.98476812 38.54831856 293.16377544 37.8169899 C293.50722163 36.41385676 293.85068212 35.01072713 294.1941576 33.60760117 C295.01794214 30.24114212 295.84021971 26.8743278 296.65927124 23.50671387 C297.54459511 19.86832076 298.4339876 16.23094493 299.32421875 12.59375 C299.71329407 10.98617828 299.71329407 10.98617828 300.11022949 9.34613037 C300.34673218 8.38305969 300.58323486 7.41998901 300.8269043 6.42773438 C301.03083298 5.59060913 301.23476166 4.75348389 301.44487 3.89099121 C302 2 302 2 303 1 C304.49283798 0.90428029 305.99019655 0.87811773 307.48609924 0.87974548 C308.45510162 0.87837082 309.424104 0.87699615 310.42247009 0.87557983 C311.49420975 0.87917511 312.5659494 0.88277039 313.67016602 0.88647461 C315.35287598 0.88625557 315.35287598 0.88625557 317.06958008 0.8860321 C320.79770811 0.8867318 324.52578689 0.89452685 328.25390625 0.90234375 C330.83080518 0.90420773 333.40770447 0.90563173 335.98460388 0.90663147 C342.08675115 0.91006658 348.18887794 0.9179574 354.29101747 0.92798096 C361.2364925 0.93914311 368.18196835 0.9446528 375.12745011 0.94967639 C389.41830966 0.96014004 403.7091542 0.97773885 418 1 C421.61040623 13.67414945 424.88160481 26.40311287 427.96484375 39.21484375 C428.43471362 41.15727509 428.90485496 43.09964077 429.37524414 45.04194641 C430.63642188 50.25276317 431.89389163 55.46446815 433.15067673 60.67634583 C434.48757451 66.21739926 435.82808865 71.75757775 437.16821289 77.29785156 C439.65249003 87.57039661 442.13388447 97.84363533 444.61395359 108.11719704 C447.27178356 119.12681673 449.93241478 130.13575842 452.59375 141.14453125 C452.8162612 142.06497286 453.03877239 142.98541447 453.26802635 143.93374825 C453.49009569 144.85236074 453.71216503 145.77097324 453.94096375 146.71742249 C454.16225606 147.63282146 454.38354837 148.54822042 454.61154652 149.49135876 C455.05635308 151.33133704 455.50116646 153.17131368 455.94598675 155.01128864 C457.27420669 160.50555995 458.60198652 165.99993739 459.92944241 171.49439335 C465.20504598 193.32996735 470.49263611 215.1626023 475.79296875 236.9921875 C476.07870947 238.16907135 476.36445019 239.3459552 476.65884972 240.5585022 C479.46543332 252.11766815 482.27280205 263.67664285 485.08212376 275.23514366 C486.1162851 279.49045315 487.14998391 283.74587491 488.18360329 288.00131607 C488.66104226 289.96640671 489.13870288 291.93144351 489.61661339 293.89641953 C490.27833555 296.61717117 490.93940837 299.3380794 491.60009766 302.05908203 C491.80521752 302.90319326 492.01033739 303.7473045 492.22167301 304.61699486 C493.22159251 308.74328412 494.20751991 312.8722404 495.16864014 317.00775146 C495.35244421 317.79779005 495.53624828 318.58782864 495.72562218 319.40180779 C496.06917144 320.88379311 496.41045786 322.36630552 496.74906349 323.84942818 C497.58632512 327.52286433 497.58632512 327.52286433 499 331 C509.2245663 293.84654122 519.44787177 256.69275119 529.6244812 219.52612305 C532.70731989 208.26721497 535.79210769 197.00884051 538.87668324 185.75040817 C540.11812269 181.21919326 541.35939499 176.68793263 542.60046387 172.15661621 C545.77006879 160.58421501 548.94115413 149.01222187 552.11537838 137.44108677 C553.53973272 132.2486514 554.9633521 127.05601715 556.38516235 121.86288452 C557.71803681 116.99467074 559.0528726 112.12699909 560.38922501 107.25973892 C560.88454614 105.45431462 561.37914088 103.64869086 561.87298203 101.84286118 C562.54970265 99.36874594 563.22898722 96.89534893 563.90893555 94.42211914 C564.10773725 93.69289844 564.30653894 92.96367773 564.51136494 92.21235943 C565.88588968 87.22822065 565.88588968 87.22822065 567 85 C549.18 85 531.36 85 513 85 C513 56.95 513 28.9 513 0 C579.33 0 645.66 0 714 0 C714 28.05 714 56.1 714 85 C699.81 85 685.62 85 671 85 C670.67 87.31 670.34 89.62 670 92 C669.37222504 94.54028128 668.7144695 97.04728123 668.00073242 99.5625 C667.79817054 100.28989978 667.59560865 101.01729956 667.38690853 101.76674175 C666.71398432 104.17903062 666.03475678 106.58949614 665.35546875 109 C664.87372196 110.72180434 664.39235681 112.4437155 663.91134644 114.16572571 C662.61301614 118.80931321 661.30913654 123.4513258 660.00416946 128.09305191 C658.62849348 132.98979269 657.25784713 137.88794132 655.88647461 142.78588867 C652.59808844 154.52592428 649.30016537 166.26327099 646 178 C645.53657465 179.64845623 645.0731548 181.296914 644.60974121 182.94537354 C640.55084379 197.38253313 636.48469079 211.81764088 632.41329956 226.25128174 C626.46198198 247.34956515 620.53026389 268.45332902 614.60344315 289.55850601 C613.81483619 292.36668098 613.02618436 295.17484334 612.23751831 297.98300171 C609.31052661 308.40502008 606.38381212 318.82711628 603.45724964 329.24925518 C598.9898107 345.15877443 594.52204255 361.06820121 590.05369282 376.97746468 C588.73037144 381.68910084 587.40713525 386.40076089 586.08413696 391.11248779 C585.58449401 392.89188668 585.08485006 394.67128528 584.58520508 396.45068359 C584.34086196 397.32089331 584.09651884 398.19110302 583.84477139 399.08768272 C582.64718199 403.35237 581.44902213 407.61689557 580.24961853 411.881073 C579.78131987 413.54604048 579.31302255 415.21100833 578.84472656 416.87597656 C578.61404511 417.69607019 578.38336367 418.51616383 578.14569187 419.36110878 C576.643842 424.70278301 575.14764785 430.04601549 573.65448189 435.39012337 C572.62963294 439.05625818 571.60218648 442.72166209 570.57429123 446.38694382 C570.08512579 448.13364263 569.59713697 449.88067141 569.11037064 451.62804031 C568.44165641 454.02810803 567.76891767 456.42701225 567.09521484 458.82568359 C566.89671307 459.54209393 566.69821129 460.25850426 566.49369431 460.99662399 C565.11396189 465.88603811 565.11396189 465.88603811 564 467 C562.26640402 467.09627113 560.52885354 467.12187568 558.79258728 467.12025452 C557.66371597 467.12162918 556.53484467 467.12300385 555.37176514 467.12442017 C553.49765961 467.11902725 553.49765961 467.11902725 551.58569336 467.11352539 C550.27856888 467.11367142 548.9714444 467.11381744 547.62471008 467.1139679 C544.02982901 467.11425586 540.43498103 467.10835928 536.84010768 467.10139394 C533.08713748 467.09516026 529.3341666 467.09455659 525.58119202 467.09336853 C518.46969174 467.09025526 511.35820675 467.08204192 504.24671322 467.07201904 C496.15252934 467.06085778 488.05834474 467.05534742 479.96415508 467.05032361 C463.30942775 467.03985931 446.65471582 467.02225994 430 467 C423.287716 440.30550847 416.67643096 413.59007508 410.24453354 386.82666779 C409.16301263 382.32857379 408.07913135 377.83104863 406.99536133 373.33349609 C406.53364396 371.41732828 406.07192829 369.50116006 405.61021423 367.58499146 C405.25928868 366.1286347 405.25928868 366.1286347 404.90127373 364.6428566 C404.17684305 361.63604311 403.45265899 358.62917031 402.72853088 355.62228394 C396.54408943 329.94411694 390.33679994 304.27146678 384.13127756 278.5983882 C382.10083108 270.19802771 380.0709793 261.79752351 378.04109955 253.39702606 C376.58757743 247.38205494 375.1336562 241.36718087 373.67877197 235.35253906 C373.13138413 233.08951925 372.58400041 230.82649844 372.03662109 228.56347656 C371.77478783 227.48101906 371.51295456 226.39856155 371.24318695 225.28330231 C369.82990747 219.43866995 368.41988962 213.59327053 367.0146246 207.74670601 C366.25160523 204.5727794 365.48694872 201.39924859 364.72202492 198.22578049 C364.38361173 196.8196446 364.04605974 195.41330112 363.70944786 194.00673294 C363.26392228 192.14508878 362.81529687 190.28418725 362.36645508 188.42333984 C362.00225212 186.90587662 362.00225212 186.90587662 361.63069153 185.35775757 C361.08561158 183.00381121 361.08561158 183.00381121 360 181 C350.69108904 218.13127536 341.40132048 255.26702747 332.25 292.4375 C332.07174305 293.16148232 331.8934861 293.88546463 331.70982742 294.6313858 C330.7919409 298.35937575 329.87413272 302.08738499 328.9563446 305.81539917 C328.77018774 306.57155392 328.58403088 307.32770866 328.39223289 308.10677719 C328.01291422 309.64757756 327.63361257 311.18838212 327.25432777 312.72919083 C322.36922491 332.57360483 317.46620922 352.41358984 312.56066895 372.25296021 C311.58322477 376.2060692 310.60608554 380.15925333 309.62927246 384.11251831 C308.46476675 388.82537129 307.29964899 393.5380726 306.13413048 398.2506752 C305.71415247 399.94913245 305.29434414 401.64763167 304.8747654 403.34618759 C299.63010987 424.57586049 294.30376251 445.78494996 289 467 C245.11 467 201.22 467 156 467 C137.65941045 403.95422341 137.65941045 403.95422341 131.04296875 380.73046875 C130.26343907 377.99817885 129.48342696 375.26602674 128.70341492 372.53387451 C127.05171072 366.74773281 125.40084493 360.96135259 123.75067139 355.17477417 C119.46858197 340.15923533 115.18258675 325.1448112 110.8956604 310.13065267 C110.41516303 308.44777674 109.93468415 306.76489553 109.45422363 305.08200908 C101.26156102 276.38601351 93.04327611 247.69741265 84.81345868 219.0120523 C83.33127205 213.84556449 81.84942094 208.67898045 80.36753845 203.5124054 C79.19206829 199.41427005 78.01657314 195.31614187 76.84106445 191.21801758 C76.55175092 190.20938994 76.26243739 189.2007623 75.96435678 188.16157019 C72.49173848 176.05536706 69.01732118 163.94968282 65.54041415 151.84471071 C63.35268583 144.22758556 61.16680511 136.60993174 58.98233193 128.99187243 C57.46579041 123.70350422 55.94702856 118.41578074 54.42655379 113.12854213 C53.50246588 109.91307192 52.58056724 106.69697734 51.65933573 103.48068774 C51.23401467 101.99743809 50.80777976 100.51445014 50.38057649 99.0317415 C49.80246735 97.02481293 49.22758067 95.01698951 48.65353394 93.00889587 C48.33199278 91.88903258 48.01045162 90.76916929 47.67916679 89.61537075 C47 87 47 87 47 85 C31.49 85 15.98 85 0 85 C0 56.95 0 28.9 0 0 Z " fill="#0093FF" transform="translate(1958,2793)"/>
<path d="M0 0 C36.44183034 -0.04299639 36.44183034 -0.04299639 49.03613281 -0.05151367 C49.85381968 -0.05206768 50.67150655 -0.0526217 51.51397181 -0.0531925 C156.35006578 -0.12162082 156.35006578 -0.12162082 202.41047668 0.28914261 C205.22737551 0.3123139 208.04425861 0.33006724 210.86120605 0.34616089 C258.75793279 0.63336482 299.28752512 10.27579397 334 45 C336.48883251 47.56562045 338.79458602 50.18809717 341 53 C341.61875 53.78117187 342.2375 54.56234375 342.875 55.3671875 C353.6132042 69.50302663 360.95992983 85.03602426 366.1875 101.9375 C366.43781982 102.73575195 366.68813965 103.53400391 366.94604492 104.35644531 C370.48571002 116.22635371 371.3295111 127.91851387 371.26074219 140.22021484 C371.25001253 142.49734101 371.26070805 144.77367866 371.2734375 147.05078125 C371.28216637 155.87692227 370.70076793 164.30839308 369 173 C368.86464844 173.71043457 368.72929688 174.42086914 368.58984375 175.15283203 C364.18195683 196.50495435 351.21991244 217.14813418 333.38671875 229.86328125 C331.60668524 230.93509539 329.80622188 231.97293265 328 233 C328 233.66 328 234.32 328 235 C329.8800104 236.47246094 329.8800104 236.47246094 332.3125 238 C352.99108147 252.13620541 369.2584382 274.09895026 374 299 C380.13243059 338.31857299 372.36832645 378.5983756 349.1875 411.3125 C326.749273 441.57601253 295.16404341 460.41322372 258.1328125 466.421875 C249.92130849 467.61362914 241.82956635 468.14651101 233.53427124 468.12025452 C232.52934022 468.12110894 231.52440919 468.12196337 230.48902571 468.12284368 C227.14810141 468.1244805 223.80722821 468.11900676 220.46630859 468.11352539 C218.06092327 468.1132431 215.65553786 468.11340206 213.25015259 468.1139679 C207.41345184 468.11422457 201.57676761 468.10990285 195.74007063 468.10353024 C188.94398087 468.09635959 182.14789341 468.09488315 175.3518004 468.09374207 C163.23371632 468.09155756 151.115639 468.08491381 138.99755859 468.07543945 C127.23128289 468.06624975 115.46500904 468.05917655 103.69873047 468.05493164 C102.97253078 468.05466892 102.2463311 468.05440619 101.49812536 468.05413551 C97.85471833 468.0528304 94.21131129 468.05156671 90.56790423 468.05032361 C60.37859691 468.03996973 30.18930201 468.02154154 0 468 C0 439.95 0 411.9 0 383 C15.51 383 31.02 383 47 383 C47 284.99 47 186.98 47 86 C31.49 86 15.98 86 0 86 C0 57.62 0 29.24 0 0 Z M150 86 C150 120.32 150 154.64 150 190 C162.7875 190.103125 175.575 190.20625 188.75 190.3125 C194.77266113 190.38078003 194.77266113 190.38078003 200.91699219 190.45043945 C204.56386266 190.46717714 204.56386266 190.46717714 208.21075439 190.47721863 C209.8161312 190.48482084 211.42148218 190.50224668 213.02667236 190.52787781 C226.35028555 190.72970889 237.42542038 189.31769289 247.4375 179.625 C257.74395716 169.62230861 263.93684934 157.59415912 265 143 C264.98068887 124.86684823 259.56092003 109.88973988 246.8671875 96.80078125 C238.36769754 88.78993793 230.04689526 85.82637997 218.45581055 85.88647461 C217.70188176 85.88635407 216.94795298 85.88623354 216.17117786 85.88610935 C213.74299428 85.88685272 211.31488851 85.8944546 208.88671875 85.90234375 C207.38269081 85.90381495 205.87866235 85.90483457 204.37463379 85.90539551 C198.81224803 85.9106277 193.24987324 85.92458896 187.6875 85.9375 C175.250625 85.958125 162.81375 85.97875 150 86 Z M150 275 C150 310.64 150 346.28 150 383 C169.5215625 383.061875 169.5215625 383.061875 189.4375 383.125 C193.53212646 383.14320801 197.62675293 383.16141602 201.84545898 383.18017578 C205.54694199 383.18686864 205.54694199 383.18686864 209.24842834 383.19088745 C210.8847106 383.19393914 212.52098863 383.20093248 214.15724182 383.21115112 C229.86308623 383.30425082 241.48813471 382.03149578 253.625 371.125 C265.29647017 358.89478924 269.9830719 341.47103821 270 325 C268.99004392 309.0426939 262.73578474 295.36415533 251.375 284.1875 C239.76861486 274.52048568 227.93424724 274.2932125 213.57421875 274.51171875 C211.93933976 274.51909017 210.30444888 274.52417871 208.66955566 274.52697754 C202.6753546 274.55296051 196.68140782 274.62276602 190.6875 274.6875 C177.260625 274.790625 163.83375 274.89375 150 275 Z " fill="#0093FF" transform="translate(350,2792)"/>
<path d="M0 0 C47.85 0 95.7 0 145 0 C145.33 61.71 145.66 123.42 146 187 C149.96 183.7 153.92 180.4 158 177 C180.63441776 161.43743018 205.10090837 153.54917259 232.5625 153.6875 C233.31223083 153.68932281 234.06196167 153.69114563 234.83441162 153.69302368 C246.42438152 153.74043874 257.70637354 154.20479306 269 157 C269.68078613 157.16628906 270.36157227 157.33257813 271.06298828 157.50390625 C296.68280797 164.04359078 319.41210482 179.11021964 333.07861328 202.00878906 C342.71965934 218.62755908 347.37103642 236.11011764 350 255 C350.16937073 256.10147369 350.33874146 257.20294739 350.51324463 258.33779907 C351.23626643 264.19008227 351.13122268 270.04552608 351.11352539 275.93359375 C351.11367142 277.21247971 351.11381744 278.49136566 351.1139679 279.80900574 C351.11425329 283.29397233 351.10839843 286.77890407 351.10139394 290.26386261 C351.09511728 293.91402507 351.0945532 297.56418844 351.09336853 301.21435547 C351.09026788 308.11666872 351.08207165 315.01896603 351.07201904 321.92127228 C351.06081847 329.78345836 351.05533753 337.64564522 351.05032361 345.5078373 C351.03988791 361.67190232 351.02155826 377.8359454 351 394 C366.51 394 382.02 394 398 394 C398 422.05 398 450.1 398 479 C350.81 479 303.62 479 255 479 C254.95101562 466.44324219 254.90203125 453.88648437 254.8515625 440.94921875 C254.81615529 432.96939436 254.7802618 424.989577 254.7421875 417.00976562 C254.68191382 404.3584965 254.62356141 391.70724048 254.578125 379.0559082 C254.54501538 369.83940277 254.50508194 360.62295546 254.45720994 351.40651447 C254.43213196 346.53386243 254.41029732 341.66124801 254.39665604 336.78854942 C254.3836636 332.18633242 254.36143147 327.58424569 254.33261681 322.98210144 C254.32367324 321.30819943 254.3178825 319.63427653 254.31578636 317.96035194 C254.30283254 309.17367172 253.98525994 300.50072038 253.08554077 291.75593567 C252.9657437 290.58469415 252.9657437 290.58469415 252.84352648 289.38979119 C251.26049315 275.30642556 245.52164129 262.8434839 234.43359375 253.71875 C224.47027746 246.68205792 212.78653941 244.03482294 200.6875 245.5 C181.09146891 249.26663371 165.35970945 258.68160054 150 271 C149.29414639 271.43895757 148.58829277 271.87791513 147.86104965 272.33017445 C145.8066905 273.84955776 145.8066905 273.84955776 145.49219131 276.24322796 C145.48666056 277.56646179 145.48666056 277.56646179 145.48101807 278.91642761 C145.46710526 279.93025009 145.45319244 280.94407257 145.43885803 281.98861694 C145.44640358 283.65557114 145.44640358 283.65557114 145.45410156 285.35620117 C145.43859505 287.11250099 145.43859505 287.11250099 145.42277527 288.90428162 C145.39831634 292.11490038 145.39151133 295.32497923 145.39249516 298.5356729 C145.38936907 301.8910015 145.36375733 305.24615596 145.34051514 308.60139465 C145.29992798 314.95491695 145.27960815 321.30833654 145.26654124 327.66196853 C145.2506803 334.89536631 145.21226861 342.12858908 145.17194796 349.36188543 C145.08951186 364.24122384 145.03842015 379.12047065 145 394 C160.51 394 176.02 394 192 394 C192 422.05 192 450.1 192 479 C128.64 479 65.28 479 0 479 C0 450.95 0 422.9 0 394 C16.5 394 33 394 50 394 C50 292.03 50 190.06 50 85 C33.5 85 17 85 0 85 C0 56.95 0 28.9 0 0 Z " fill="#0093FF" transform="translate(3275,2781)"/>
<path d="M0 0 C47.85 0 95.7 0 145 0 C145 90.75 145 181.5 145 275 C162.82 275 180.64 275 199 275 C199.66 273.35 200.32 271.7 201 270 C202.50124946 267.76486838 204.02297075 265.59707439 205.625 263.4375 C206.89294914 261.7149646 208.14942445 259.98990104 209.3722229 258.23490906 C211 256 211 256 212.99789429 253.67353821 C220.40425079 244.27275274 220.13270186 235.77548779 220 224.234375 C220.00813121 222.55873526 220.01984402 220.88310904 220.03515625 219.20751953 C220.06665241 213.05508248 220.029317 206.90244782 220 200.75 C220 186.9725 220 173.195 220 159 C274.78 159 329.56 159 386 159 C386 187.05 386 215.1 386 244 C357.5625 243.8125 357.5625 243.8125 348.63500977 243.66723633 C346.27878816 243.67616291 343.92257697 243.68915795 341.56640625 243.70703125 C340.36012573 243.67234741 339.15384521 243.63766357 337.91101074 243.60192871 C332.61039745 243.68741369 329.32175411 243.83176911 325.25436401 247.42672729 C322.98228806 250.1945922 320.97333838 253.01490812 319 256 C318.11054093 257.05480658 317.19932351 258.0924812 316.25 259.09375 C311.34603165 264.33827171 306.72344154 269.73018227 302.21484375 275.31640625 C299.33519113 278.80550916 296.29306124 282.12996921 293.24609375 285.47265625 C290.15786029 288.94759025 287.26317541 292.5675256 284.34765625 296.1875 C281.04723939 300.14141038 277.52376015 303.86476367 273.96875 307.58984375 C271.45586685 310.45387465 271.45586685 310.45387465 271 314 C272.54978273 316.21527767 274.06241135 318.08321296 275.875 320.0625 C276.90836125 321.23496442 277.94090318 322.40815141 278.97265625 323.58203125 C279.74826904 324.45335693 279.74826904 324.45335693 280.53955078 325.34228516 C282.52521614 327.59615807 284.42182788 329.91614576 286.3125 332.25 C290.08948911 336.88722862 293.88405495 341.50947226 297.6875 346.125 C298.28119385 346.84550537 298.8748877 347.56601074 299.48657227 348.30834961 C300.70831009 349.79103478 301.93007142 351.27370058 303.15185547 352.75634766 C304.98890239 354.98652747 306.82472564 357.2177086 308.66015625 359.44921875 C309.55480591 360.53650269 309.55480591 360.53650269 310.4675293 361.64575195 C311.64530729 363.07744346 312.82256315 364.50956467 313.99926758 365.94213867 C316.6792697 369.20087752 319.37034327 372.44807381 322.1015625 375.6640625 C322.57303711 376.2211792 323.04451172 376.7782959 323.53027344 377.35229492 C324.78441258 378.83071276 326.04432929 380.30422411 327.3046875 381.77734375 C329 384 329 384 329 386 C346.82 386 364.64 386 383 386 C383 416.69 383 447.38 383 479 C368.81 479.433125 354.62 479.86625 340 480.3125 C335.55144531 480.50368408 331.10289062 480.69486816 326.51953125 480.8918457 C296.74459122 481.64109229 296.74459122 481.64109229 288.90722656 474.61206055 C285.22160394 470.29791001 282.57876772 465.64301937 280.2019043 460.50723267 C278.62339813 457.2143896 276.68486913 454.7255206 274.359375 451.91796875 C268.06292214 443.66721432 261.7851 435.40414341 255.57275391 427.08984375 C251.46050252 421.59396668 247.2940471 416.14035992 243.125 410.6875 C237.97175903 403.94549588 232.88571521 397.16104315 227.875 390.3125 C222.79913018 383.37643517 217.58455563 376.56696681 212.27807617 369.80615234 C206.06410487 361.86105207 200.11181688 353.72638388 194.17651367 345.57202148 C193.09017478 344.04269791 193.09017478 344.04269791 192 343 C190.52749355 342.87767356 189.04934289 342.8222544 187.57202148 342.79467773 C186.14085999 342.76440491 186.14085999 342.76440491 184.68078613 342.73352051 C183.67108765 342.71704468 182.66138916 342.70056885 181.62109375 342.68359375 C180.23670105 342.65561707 180.23670105 342.65561707 178.82434082 342.6270752 C175.36216201 342.55854951 171.89981876 342.49854672 168.4375 342.4375 C156.8359375 342.2209375 156.8359375 342.2209375 145 342 C145 359.16 145 376.32 145 394 C155.56 394 166.12 394 177 394 C177 422.05 177 450.1 177 479 C118.59 479 60.18 479 0 479 C0 450.95 0 422.9 0 394 C16.5 394 33 394 50 394 C50 292.03 50 190.06 50 85 C33.5 85 17 85 0 85 C0 56.95 0 28.9 0 0 Z " fill="#0093FF" transform="translate(1524,2781)"/>
<path d="M0 0 C48.65036438 -0.6340784 97.20497321 1.1252867 145.61737061 6.03320312 C146.72731384 6.14515015 147.83725708 6.25709717 148.98083496 6.37243652 C238.10636391 15.43861337 326.26070003 33.79835473 411.61737061 61.03320312 C412.39820007 61.28201233 413.17902954 61.53082153 413.98352051 61.78717041 C472.40444271 80.44686801 529.69147398 102.92114174 584.6975708 130.08599854 C586.86336919 131.15457567 589.03089418 132.2196101 591.19842529 133.28466797 C610.16823674 142.61533144 629.01476513 152.01097938 647.27508545 162.68066406 C650.20938528 164.37505859 653.18034295 165.99558031 656.15765381 167.61279297 C676.66782589 178.79252747 696.31246729 191.34096969 715.74237061 204.28320312 C716.55032074 204.82033936 717.35827087 205.35747559 718.19070435 205.91088867 C733.55289416 216.14074918 748.58689317 226.81126901 763.24237061 238.03320312 C764.55129272 239.03420044 764.55129272 239.03420044 765.88665771 240.05541992 C777.29730175 248.81800221 788.48084298 257.73870152 798.96893311 267.59570312 C800.90287536 269.37561458 802.84033906 271.06608182 804.86737061 272.73242188 C808.94168124 276.14118461 809.46828689 277.69144968 810.05487061 282.97070312 C809.95398237 286.33784789 809.55714423 287.12263016 807.55487061 290.09570312 C804.61737061 292.03320312 804.61737061 292.03320312 801.47332764 291.90527344 C796.89181429 290.86910998 793.15124468 289.13747273 788.98455811 287.01757812 C787.75261719 286.40666069 787.75261719 286.40666069 786.49578857 285.78340149 C784.73727385 284.91078608 782.98079391 284.03406013 781.22619629 283.15359497 C776.59742199 280.83331735 771.95087327 278.54920585 767.30487061 276.26367188 C766.38148895 275.80878891 765.4581073 275.35390594 764.50674438 274.88523865 C752.36324717 268.91895046 740.03836677 263.39768371 727.61737061 258.03320312 C726.41628662 257.51242187 725.21520264 256.99164062 723.97772217 256.45507812 C669.51963024 232.90342876 613.04082346 213.32865495 555.83117676 197.64068604 C553.61419075 197.03233055 551.39822953 196.42033998 549.18231201 195.80810547 C509.02724564 184.74830902 468.31274124 175.83189466 427.31561279 168.51501465 C425.49569323 168.19004077 423.67603658 167.86359152 421.85662842 167.5357666 C387.92658509 161.42263097 353.87724518 156.85781081 319.61737061 153.03320312 C318.53860657 152.91203125 317.45984253 152.79085938 316.34838867 152.66601562 C289.15270206 149.62390137 261.92722711 147.45757007 234.61737061 145.78320312 C233.59365356 145.72022726 233.59365356 145.72022726 232.54925537 145.65597916 C213.91329406 144.51313084 195.27894446 143.62452223 176.61737061 143.03320312 C175.66610291 143.00186279 174.71483521 142.97052246 173.73474121 142.93823242 C98.32019566 140.47936863 22.54372845 142.74779936 -52.79571533 146.42358398 C-60.80297972 146.80848669 -68.80301129 147.12413596 -76.82012939 147.18164062 C-77.85743446 147.19555344 -77.85743446 147.19555344 -78.91569519 147.20974731 C-87.02031365 147.212651 -91.86087977 144.69159512 -97.69512939 139.28320312 C-105.33780168 131.1381241 -106.83943765 123.02862509 -106.49448013 112.1112709 C-106.13500811 105.43266292 -105.05011207 98.81247821 -104.08184814 92.20117188 C-103.84164415 90.51323678 -103.60222472 88.82518988 -103.36354065 87.13703918 C-102.86415807 83.61905004 -102.35854444 80.10203867 -101.84771729 76.58569336 C-101.20042505 72.12962403 -100.56397967 67.67209792 -99.93168926 63.21387768 C-99.31888756 58.89659572 -98.70054903 54.58011169 -98.08184814 50.26367188 C-97.96803991 49.46649435 -97.85423168 48.66931683 -97.73697472 47.84798241 C-97.08799795 43.31633689 -96.42037951 38.78814526 -95.72390366 34.26354599 C-95.49073903 32.73973623 -95.26229501 31.2151986 -95.03793716 29.69006729 C-94.69514924 27.38033255 -94.33202601 25.07461961 -93.96392822 22.76879883 C-93.86479724 22.07843379 -93.76566626 21.38806875 -93.6635313 20.67678356 C-92.74492948 15.14763419 -90.59675385 11.17097846 -86.57012939 7.28320312 C-80.69584986 3.92647196 -74.26094117 3.60903812 -67.65606689 3.21679688 C-66.72429123 3.1556369 -65.79251556 3.09447693 -64.83250427 3.03146362 C-61.80802386 2.8358443 -58.78297776 2.65237112 -55.75762939 2.47070312 C-53.64817236 2.34009854 -51.53871598 2.20948323 -49.42926025 2.07885742 C-32.95546407 1.07333166 -16.50522703 0.23000854 0 0 Z " fill="#0094FF" transform="translate(766.3826293945313,1887.966796875)"/>
<path d="M0 0 C0.6794165 0.21551514 1.35883301 0.43103027 2.05883789 0.65307617 C36.15383796 11.48674584 69.37001788 24.34086612 102 39 C103.00015137 39.44778809 104.00030273 39.89557617 105.03076172 40.35693359 C107.69406104 41.55695208 110.34902874 42.77302399 113 44 C113.7412915 44.33749268 114.48258301 44.67498535 115.24633789 45.02270508 C121.94099211 48.18927732 127.31069159 51.78133005 130 59 C131.10957987 63.69722143 131.60106624 67.74370978 129 72 C126.12212849 74.93152957 124.6630761 75.95228266 120.51245117 76.25097656 C119.12502884 76.15328679 117.73919588 76.03127791 116.35546875 75.890625 C115.18699654 75.79880951 115.18699654 75.79880951 113.99491882 75.70513916 C111.32784009 75.49049493 108.66447769 75.24470227 106 75 C104.02963509 74.83577179 102.05908575 74.67374468 100.08837891 74.51367188 C95.63888341 74.14869243 91.19054401 73.77223887 86.74267578 73.38793945 C37.85291362 69.17527638 -11.15754425 65.80895407 -60.1875 63.75 C-61.02343689 63.71484283 -61.85937378 63.67968567 -62.72064209 63.64346313 C-67.76778425 63.4367089 -72.8154866 63.26022741 -77.86431885 63.10028076 C-80.14528507 63.02733424 -82.42615835 62.95146342 -84.70697021 62.87384033 C-108.0367168 62.08213633 -131.34656319 61.84072303 -154.68896484 61.86962891 C-159.31081318 61.87530872 -163.93260369 61.87193407 -168.55445004 61.86619663 C-203.04387075 61.82979133 -237.49511449 62.42434701 -271.9375 64.3125 C-273.71698029 64.40812225 -273.71698029 64.40812225 -275.53240967 64.50567627 C-300.39738311 65.85200657 -325.20681948 67.68525175 -350 70 C-350.9540271 70.0887439 -351.9080542 70.17748779 -352.89099121 70.2689209 C-427.92527651 77.29710998 -503.42566335 88.65439892 -576.02539062 109.29150391 C-582.12885927 110.74523552 -587.58271193 111.14023022 -593.3125 108.4375 C-603.56372951 99.13987324 -603.56372951 99.13987324 -604.25447559 92.58522129 C-604.25652846 91.68098392 -604.25858133 90.77674654 -604.26069641 89.84510803 C-604.26778122 88.80348007 -604.27486603 87.76185211 -604.28216553 86.68865967 C-604.27968811 85.55140442 -604.27721069 84.41414917 -604.2746582 83.24243164 C-604.27976913 82.04043625 -604.28488007 80.83844086 -604.29014587 79.60002136 C-604.30166415 76.30655608 -604.3041155 73.01334248 -604.30158257 69.71987462 C-604.30051231 66.96887745 -604.30539764 64.21790346 -604.310188 61.46691126 C-604.32128036 54.97605143 -604.32172212 48.48524948 -604.31567383 41.99438477 C-604.30963331 35.30170411 -604.3219475 28.60923364 -604.3432439 21.91658884 C-604.36086567 16.1669948 -604.36686036 10.41746763 -604.36360615 4.66784757 C-604.36179406 1.23540146 -604.36442192 -2.1968947 -604.37832069 -5.62931633 C-604.39324146 -9.45730703 -604.38392384 -13.28503048 -604.37231445 -17.11303711 C-604.37995819 -18.24826813 -604.38760193 -19.38349915 -604.39547729 -20.5531311 C-604.38846298 -21.59757889 -604.38144867 -22.64202667 -604.3742218 -23.71812439 C-604.37438954 -24.62273879 -604.37455729 -25.52735319 -604.37473011 -26.45938015 C-603.91197595 -29.59679127 -602.85830355 -31.44572781 -601 -34 C-596.34956134 -37.13805483 -591.74782722 -38.9836204 -586.3125 -40.375 C-585.51835693 -40.57923584 -584.72421387 -40.78347168 -583.90600586 -40.99389648 C-548.80285044 -49.5427322 -511.97988465 -52.85463046 -476 -55 C-475.13568359 -55.0525293 -474.27136719 -55.10505859 -473.38085938 -55.15917969 C-382.92015394 -60.44492287 -291.32269632 -56.28969582 0 0 Z " fill="#006EBE" transform="translate(1336,2136)"/>
<path d="M0 0 C12.01024912 10.80762889 22.36790454 22.34815337 31 36 C31.66 37.00933594 32.32 38.01867188 33 39.05859375 C56.42168421 76.75286677 61.15821332 125.50785681 51.75 168.1875 C49.58392641 177.4616286 46.80297348 186.27162606 43 195 C42.66983887 195.75909668 42.33967773 196.51819336 41.99951172 197.30029297 C28.95786064 226.84264964 8.03064059 253.36626674 -20 270 C-21.17720101 270.72637183 -22.35428592 271.45293184 -23.53125 272.1796875 C-36.86291277 280.24117149 -51.05317544 285.76740914 -66 290 C-67.03769531 290.29777344 -68.07539062 290.59554687 -69.14453125 290.90234375 C-114.4341341 303.08870275 -164.84585092 295.14642508 -205.21386719 272.06347656 C-210.35169574 269.0043758 -215.19387326 265.55426912 -220 262 C-221.29164063 261.04673828 -221.29164063 261.04673828 -222.609375 260.07421875 C-233.41655736 251.76232531 -242.72420723 241.80361274 -251 231 C-251.58007812 230.24847656 -252.16015625 229.49695312 -252.7578125 228.72265625 C-269.46537003 205.99260705 -279.80181801 177.96549837 -283 150 C-283.16628906 148.6696875 -283.16628906 148.6696875 -283.3359375 147.3125 C-288.09191482 102.06644554 -276.1822609 56.82208326 -248 21 C-244.65522387 16.991806 -241.10019596 13.20281696 -237.44384766 9.47900391 C-236.03982351 8.04079317 -234.66584787 6.57343907 -233.29296875 5.10546875 C-172.55609125 -58.4770604 -64.51558078 -54.11355723 0 0 Z M-167 65 C-167.75539063 65.70253906 -168.51078125 66.40507812 -169.2890625 67.12890625 C-185.23058402 83.31694615 -191.41310515 106.62767168 -191.30249023 128.82080078 C-190.70749743 151.84010373 -181.98198045 172.82178122 -165.7734375 189.2578125 C-149.27090215 204.59409093 -129.87899788 209.68474252 -107.96875 209.30859375 C-91.64796926 208.69092601 -76.16344623 201.84081907 -64 191 C-63.32582031 190.41863281 -62.65164063 189.83726562 -61.95703125 189.23828125 C-48.27559462 176.6153697 -38.80550706 155.08952779 -37.87597656 136.52270508 C-37.16038427 110.90935986 -41.55543157 86.93786032 -58.875 67.0625 C-72.64994141 52.76339796 -91.42865028 45.1617749 -111.15405273 44.52685547 C-132.02567154 44.32990273 -151.57580277 50.46878261 -167 65 Z " fill="#0094FF" transform="translate(1047,2972)"/>
<path d="M0 0 C11.8245991 10.96354517 22.38738185 23.29903509 30.81591797 37.07470703 C31.75177734 38.59064453 31.75177734 38.59064453 32.70654297 40.13720703 C41.90609008 55.4047763 47.58146556 71.81245674 51.81591797 89.07470703 C51.99670898 89.79158691 52.1775 90.5084668 52.36376953 91.24707031 C57.79298252 113.90836789 57.28266809 142.4833886 51.81591797 165.07470703 C51.63899414 165.85217285 51.46207031 166.62963867 51.27978516 167.43066406 C42.29688845 206.51945206 19.2140261 245.17320467 -15.28808594 266.89746094 C-16.226604 267.48019775 -16.226604 267.48019775 -17.18408203 268.07470703 C-17.88581543 268.51862793 -18.58754883 268.96254883 -19.31054688 269.41992188 C-41.78562505 283.50508104 -67.56457268 293.26759414 -94.18408203 295.07470703 C-95.08433105 295.14028809 -95.98458008 295.20586914 -96.91210938 295.2734375 C-138.99212614 298.15714613 -180.0948056 290.30392902 -215.18408203 266.07470703 C-216.26689453 265.32962891 -217.34970703 264.58455078 -218.46533203 263.81689453 C-237.670235 249.79351241 -252.63349385 231.71736894 -264.18408203 211.07470703 C-264.78994141 210.01251953 -265.39580078 208.95033203 -266.02001953 207.85595703 C-284.39907293 173.59274437 -290.00770933 128.00671351 -281.18408203 90.07470703 C-280.99072266 89.24293945 -280.79736328 88.41117188 -280.59814453 87.55419922 C-272.28392972 53.23240195 -254.00274659 20.40869705 -226.18408203 -1.92529297 C-225.24177734 -2.69357422 -224.29947266 -3.46185547 -223.32861328 -4.25341797 C-159.89726336 -55.0833625 -61.37798493 -54.10538667 0 0 Z M-165.18408203 63.07470703 C-165.97685547 63.66123047 -166.76962891 64.24775391 -167.58642578 64.85205078 C-170.56205145 67.39811245 -172.81215516 70.21031813 -175.05908203 73.38720703 C-175.490354 73.99677246 -175.92162598 74.60633789 -176.3659668 75.234375 C-183.27957447 85.30617722 -187.82478754 96.06045357 -190.18408203 108.07470703 C-190.35464111 108.83275635 -190.5252002 109.59080566 -190.70092773 110.37182617 C-193.3449759 125.16326489 -192.2037784 141.93425518 -187.18408203 156.07470703 C-186.81025391 157.14462891 -186.43642578 158.21455078 -186.05126953 159.31689453 C-178.74969288 178.32033574 -164.48754728 194.15654531 -146.18408203 203.07470703 C-126.01748621 211.19864264 -103.64923431 212.13152747 -83.44580078 203.53173828 C-64.41122106 194.87827686 -51.12819645 179.28639109 -43.80908203 159.88720703 C-34.88649688 134.9704289 -36.75189772 107.71109519 -47.93408203 83.82470703 C-57.42086287 66.03397553 -71.54583124 54.4937172 -90.44189453 47.94580078 C-93.01867617 47.21910623 -95.55686756 46.58578895 -98.18408203 46.07470703 C-99.07095703 45.89423828 -99.95783203 45.71376953 -100.87158203 45.52783203 C-124.14738452 42.34387792 -147.09394989 47.725504 -165.18408203 63.07470703 Z " fill="#0094FF" transform="translate(1430.18408203125,2971.92529296875)"/>
<path d="M0 0 C0.85800201 0.00182281 1.71600403 0.00364563 2.6000061 0.00552368 C32.90918087 0.11374681 70.36440498 3.64158802 94.48266602 24.39501953 C99.25225868 27.5614944 104.94189598 26.9163916 110.4609375 26.921875 C112.04418823 26.94531982 112.04418823 26.94531982 113.65942383 26.96923828 C117.5852223 27.02166118 121.51141558 27.04007439 125.4375 27.0625 C134.22375 27.145 143.01 27.2275 152.0625 27.3125 C152.0625 56.0225 152.0625 84.7325 152.0625 114.3125 C125.6625 114.3125 99.2625 114.3125 72.0625 114.3125 C71.0725 109.8575 71.0725 109.8575 70.0625 105.3125 C64.0108326 92.89970494 52.41920074 87.26538633 39.95410156 82.92626953 C19.33997435 76.23758654 -8.5344381 74.02788939 -28.46484375 83.515625 C-33.47525202 86.37871544 -36.70074112 89.78008897 -39.25 95 C-40.46425739 100.85051289 -40.24133147 106.81822578 -37.125 112.0625 C-30.4694174 119.85977858 -19.39275781 122.32181191 -9.75 124.0625 C-7.89130854 124.42461036 -6.03263351 124.7868081 -4.17430115 125.15075684 C-2.05533938 125.56348688 0.06498413 125.96862746 2.18554688 126.37304688 C11.06280961 128.07428377 19.92147656 129.86998772 28.78042603 131.66369629 C31.91040688 132.29444533 35.04230682 132.91483201 38.17456055 133.53417969 C76.38590764 141.17533465 117.73541335 151.37390653 142.296875 184.30859375 C143.99748025 186.92854328 145.55751005 189.57655005 147.0625 192.3125 C147.44664062 192.92738281 147.83078125 193.54226562 148.2265625 194.17578125 C153.67883523 203.56118202 155.63055222 216.60770728 156.0625 227.3125 C156.10246094 228.04726562 156.14242187 228.78203125 156.18359375 229.5390625 C156.83850831 252.57664538 150.34920504 274.82812912 135.0625 292.3125 C133.97775391 293.55966797 133.97775391 293.55966797 132.87109375 294.83203125 C130.63377882 297.35705503 128.35515166 299.83776048 126.0625 302.3125 C125.53398437 302.91835937 125.00546875 303.52421875 124.4609375 304.1484375 C114.80775006 314.6926884 100.90402289 321.46926736 88.0625 327.3125 C86.89589844 327.84617187 85.72929687 328.37984375 84.52734375 328.9296875 C63.07850037 338.09829608 39.30745483 342.48509338 16.0625 343.3125 C14.46341797 343.374375 14.46341797 343.374375 12.83203125 343.4375 C-14.20212234 343.95428191 -51.62066445 340.78991079 -73.18844604 322.39242554 C-80.58305792 316.29974715 -86.04345722 315.15713161 -95.48046875 315.3125 C-96.58990845 315.30089844 -97.69934814 315.28929688 -98.84240723 315.27734375 C-102.9365014 315.24597245 -107.03089094 315.28313593 -111.125 315.3125 C-120.303125 315.3125 -129.48125 315.3125 -138.9375 315.3125 C-138.9375 286.6025 -138.9375 257.8925 -138.9375 228.3125 C-109.8975 228.3125 -80.8575 228.3125 -50.9375 228.3125 C-49.9475 232.6025 -48.9575 236.8925 -47.9375 241.3125 C-41.69533996 251.45601006 -32.87284718 256.41074837 -22 260.625 C-21.38068604 260.86758545 -20.76137207 261.1101709 -20.12329102 261.36010742 C-10.25184397 264.94730379 -0.04614433 265.65761459 10.375 265.5625 C12.01021606 265.55126099 12.01021606 265.55126099 13.6784668 265.53979492 C28.45865892 265.34348607 44.26436203 264.3840812 56.0625 254.3125 C60.54675827 249.29013074 61.83896103 244.67984559 61.46875 237.98828125 C60.68005178 232.79349012 59.13513004 229.16582686 55.1796875 225.62890625 C45.45239904 218.63850719 33.75597321 216.37779374 22.2488842 213.98577118 C19.77330446 213.47052611 17.30024516 212.94440029 14.82752991 212.41558838 C7.80309013 210.91541906 0.7745822 209.43473047 -6.25512695 207.95947266 C-83.9206522 191.63640815 -83.9206522 191.63640815 -112.9375 163.3125 C-113.61554687 162.69632813 -114.29359375 162.08015625 -114.9921875 161.4453125 C-120.04185327 156.75473407 -123.49106274 151.24665336 -126.9375 145.3125 C-127.40285156 144.53132813 -127.86820313 143.75015625 -128.34765625 142.9453125 C-138.13576199 125.16508372 -140.06245568 100.20741013 -134.70336914 80.83666992 C-129.49379747 63.43674483 -120.62573738 50.00932212 -107.9375 37.3125 C-107.15890625 36.51070312 -106.3803125 35.70890625 -105.578125 34.8828125 C-78.57334466 8.71611155 -36.25181398 -0.15976518 0 0 Z " fill="#0093FF" transform="translate(3074.9375,2924.6875)"/>
<path d="M0 0 C47.52 0 95.04 0 144 0 C144 77.55 144 155.1 144 235 C158.52 235 173.04 235 188 235 C188 263.05 188 291.1 188 320 C125.96 320 63.92 320 0 320 C0 291.95 0 263.9 0 235 C15.84 235 31.68 235 48 235 C48 185.5 48 136 48 85 C32.16 85 16.32 85 0 85 C0 56.95 0 28.9 0 0 Z " fill="#0093FF" transform="translate(2701,2940)"/>
<path d="M0 0 C10.78297183 10.12485618 16.97836555 22.05048331 17.96875 36.90625 C18.36450972 51.81319961 14.89672674 65.07738348 5.19921875 76.67578125 C-4.5641344 86.88104006 -17.28641246 95.35282522 -31.76171875 95.828125 C-49.75372885 96.10407075 -49.75372885 96.10407075 -57.25 92.625 C-58.25933594 92.18414063 -59.26867188 91.74328125 -60.30859375 91.2890625 C-75.73288803 83.84034559 -84.66139009 72.56554017 -90.3359375 56.5625 C-94.62371741 41.77162618 -92.4295056 26.69174821 -85.75 12.9375 C-77.65474321 -0.59486956 -64.92998166 -9.59757302 -49.8125 -13.875 C-30.91580774 -16.83777011 -14.51690944 -12.56978298 0 0 Z " fill="#0094FF" transform="translate(2836.25,2797.375)"/>
</svg>
